<svg id="svg" version="1.1" xmlns="http://www.w3.org/2000/svg" xmlns:xlink="http://www.w3.org/1999/xlink" width="400" height="398.5294117647059" viewBox="0, 0, 400,398.5294117647059"><g id="svgg"><path id="path0" d="M189.831 11.420 C 187.089 12.412,184.128 13.543,183.250 13.934 C 182.373 14.325,180.503 15.062,179.094 15.572 C 175.753 16.782,166.328 21.413,163.429 23.270 C 159.692 25.663,157.535 24.961,157.521 21.347 C 157.507 17.602,156.756 17.848,150.859 23.529 C 145.138 29.040,144.072 29.559,138.720 29.438 C 135.398 29.362,134.075 29.512,131.915 30.209 C 126.091 32.088,121.461 36.278,118.318 42.517 C 116.694 45.740,115.938 45.954,107.329 45.621 C 99.201 45.307,98.434 45.496,94.915 48.681 C 93.928 49.574,92.582 50.791,91.924 51.385 C 81.928 60.412,77.522 64.586,70.961 71.244 C 61.996 80.341,62.378 79.840,60.205 85.327 C 57.924 91.087,56.960 92.883,54.667 95.637 C 52.486 98.259,42.589 108.044,37.886 112.230 C 32.638 116.901,28.114 122.535,25.208 128.016 C 22.638 132.864,18.744 143.530,18.744 145.721 C 18.744 146.237,18.500 147.355,18.201 148.205 C 17.903 149.055,17.531 150.828,17.376 152.144 C 17.220 153.460,16.836 155.421,16.522 156.503 C 16.209 157.585,15.952 159.127,15.952 159.929 C 15.952 160.732,15.678 162.270,15.344 163.346 C 15.009 164.423,14.571 166.919,14.371 168.893 C 14.005 172.510,13.601 175.241,12.511 181.447 L 11.917 184.828 15.893 192.813 C 20.370 201.805,23.431 209.259,24.742 214.357 C 24.911 215.015,25.613 217.707,26.302 220.339 C 28.697 229.489,28.438 233.390,25.339 234.846 C 23.348 235.782,23.137 236.327,23.153 240.479 C 23.166 243.568,23.492 245.644,24.342 248.056 C 25.709 251.931,27.194 255.748,28.231 258.053 C 28.866 259.464,30.076 262.233,30.921 264.207 C 31.766 266.181,32.582 267.976,32.734 268.195 C 32.886 268.415,33.506 269.850,34.111 271.386 C 34.716 272.921,36.323 276.510,37.681 279.362 C 40.627 285.548,49.850 308.385,49.850 309.494 C 49.850 310.934,51.957 314.318,53.432 315.249 C 56.896 317.436,57.777 318.974,59.596 326.008 C 64.767 346.006,72.095 352.583,89.731 353.053 C 97.064 353.249,99.879 354.160,104.904 357.968 C 110.205 361.984,114.440 363.510,121.669 364.010 C 125.404 364.269,127.086 364.563,128.249 365.161 C 141.735 372.098,146.692 374.759,151.545 377.671 C 155.935 380.304,157.801 381.202,159.293 381.399 C 161.506 381.692,162.528 382.438,163.323 384.339 C 163.966 385.878,165.875 386.080,170.364 385.085 C 179.192 383.129,205.554 383.473,215.155 385.670 C 219.347 386.629,219.577 386.641,225.922 386.224 C 231.047 385.888,233.253 386.448,240.199 389.846 C 246.821 393.085,247.470 393.124,248.627 390.354 C 249.574 388.089,251.784 387.087,260.219 385.098 C 265.608 383.828,266.971 384.176,270.306 387.681 C 272.979 390.490,273.364 390.477,273.750 387.567 C 274.310 383.346,276.335 381.733,281.497 381.398 C 285.130 381.163,285.219 381.094,285.407 378.387 C 285.683 374.420,285.664 374.450,292.773 366.934 C 299.560 359.757,303.672 356.530,306.033 356.530 C 307.456 356.530,307.511 355.756,306.222 353.866 C 304.948 351.998,304.904 351.781,305.525 350.418 C 306.328 348.655,313.844 345.771,316.137 346.347 C 316.829 346.520,317.470 346.189,318.786 344.976 C 320.856 343.067,322.651 342.382,326.496 342.034 C 331.420 341.587,332.098 341.038,333.225 336.585 C 334.059 333.287,334.769 332.136,339.132 327.019 C 348.935 315.521,360.212 297.257,365.479 284.347 C 366.060 282.921,366.702 281.396,366.905 280.957 C 367.625 279.398,368.893 275.765,368.893 275.260 C 368.894 273.715,362.845 279.556,360.866 283.011 C 359.078 286.133,356.110 288.734,354.336 288.734 C 352.957 288.734,352.369 289.139,350.632 291.288 C 350.312 291.685,349.486 291.928,348.439 291.934 C 346.958 291.942,346.378 292.260,343.533 294.626 C 341.758 296.101,339.269 298.026,338.003 298.903 C 336.736 299.781,334.942 301.127,334.016 301.894 C 331.468 304.007,329.872 305.228,326.814 307.406 C 325.282 308.497,323.220 310.057,322.233 310.872 C 320.124 312.613,309.186 320.415,306.879 321.824 C 306.002 322.360,305.105 323.016,304.885 323.282 C 304.202 324.111,301.000 326.396,298.613 327.758 C 297.356 328.475,296.217 329.241,296.081 329.461 C 295.946 329.680,295.448 330.028,294.976 330.233 C 294.504 330.439,293.131 331.334,291.924 332.221 C 288.908 334.441,282.086 338.983,281.768 338.983 C 281.625 338.983,280.685 339.611,279.679 340.379 C 277.393 342.124,272.397 342.439,270.189 340.977 C 268.678 339.976,267.785 339.974,266.523 340.967 C 264.245 342.758,261.207 342.480,259.959 340.366 C 258.850 338.486,256.536 338.414,254.452 340.196 C 253.622 340.905,252.617 341.376,251.933 341.376 C 250.342 341.376,249.475 341.930,248.514 343.559 C 248.010 344.413,247.375 344.965,246.896 344.965 C 246.463 344.965,245.998 345.145,245.862 345.364 C 245.480 345.983,243.212 345.834,242.444 345.139 C 240.616 343.484,237.585 344.940,237.147 347.684 C 236.962 348.838,236.415 349.589,234.607 351.166 C 230.108 355.094,227.778 355.891,218.943 356.521 C 215.289 356.782,213.106 357.166,210.768 357.958 C 206.698 359.338,203.844 359.354,199.601 358.021 C 197.846 357.470,195.244 356.893,193.819 356.740 C 192.393 356.587,189.163 355.907,186.640 355.228 C 184.118 354.550,181.246 353.936,180.259 353.863 C 172.640 353.305,167.636 352.772,162.313 351.953 C 158.913 351.429,154.068 350.827,151.545 350.615 C 148.022 350.318,146.414 349.983,144.605 349.170 C 143.311 348.588,141.367 347.944,140.286 347.739 C 139.205 347.534,137.793 346.991,137.148 346.532 C 136.504 346.073,134.948 345.292,133.691 344.796 C 132.434 344.300,130.708 343.418,129.855 342.835 C 129.001 342.252,128.087 341.775,127.823 341.775 C 126.561 341.775,125.416 339.006,126.421 338.385 C 126.640 338.249,126.820 337.674,126.820 337.106 L 126.820 336.073 123.379 336.316 C 119.047 336.621,118.185 336.273,114.991 332.927 C 113.640 331.511,110.218 328.276,107.388 325.737 C 104.558 323.198,100.280 319.173,97.882 316.792 C 95.484 314.411,92.714 311.776,91.726 310.937 C 81.115 301.922,56.065 276.164,53.799 271.938 C 53.492 271.364,52.747 269.979,52.144 268.860 C 51.540 267.742,51.047 266.561,51.047 266.237 C 51.047 265.913,50.615 265.145,50.086 264.531 L 49.126 263.414 48.838 265.007 C 47.920 270.089,42.672 266.488,42.672 260.777 C 42.672 256.324,40.462 254.384,39.493 257.985 C 39.148 259.266,38.479 260.020,37.688 260.020 C 37.614 260.020,36.824 259.339,35.932 258.507 C 32.617 255.416,33.891 251.793,37.518 253.998 C 38.742 254.742,38.777 254.742,39.521 253.998 C 40.637 252.883,41.803 253.050,42.591 254.438 C 42.964 255.096,43.583 255.736,43.966 255.860 C 45.255 256.276,45.862 257.263,45.869 258.952 C 45.876 260.969,46.307 261.745,47.306 261.541 C 48.333 261.331,48.120 259.692,46.665 256.592 C 46.037 255.255,45.398 253.460,45.246 252.604 C 44.612 249.046,41.277 244.600,39.886 245.460 C 38.282 246.451,35.494 242.888,35.494 239.847 C 35.494 238.928,37.045 235.693,37.486 235.693 C 39.846 235.693,39.944 230.880,37.799 220.339 C 36.055 211.773,36.048 207.321,37.773 203.789 C 41.295 196.573,41.576 195.611,41.959 189.432 C 42.156 186.251,42.857 179.794,43.517 175.082 C 44.176 170.370,44.884 163.999,45.091 160.924 C 45.297 157.850,45.990 152.373,46.631 148.754 C 47.272 145.135,47.916 141.276,48.063 140.179 C 48.210 139.083,48.673 137.431,49.092 136.509 C 49.511 135.586,50.191 133.419,50.604 131.691 C 51.017 129.964,52.003 127.297,52.796 125.765 C 53.589 124.233,54.237 122.763,54.237 122.499 C 54.237 121.715,57.699 115.059,58.416 114.464 C 58.779 114.163,59.357 113.365,59.702 112.691 C 60.609 110.916,66.521 102.070,67.584 100.897 C 68.081 100.349,68.646 99.610,68.840 99.255 C 70.045 97.050,85.160 81.679,94.089 73.578 C 97.473 70.508,101.617 66.729,103.297 65.181 C 104.977 63.632,107.000 62.058,107.793 61.682 C 108.585 61.305,109.736 60.578,110.350 60.064 C 110.963 59.550,112.183 58.773,113.061 58.336 C 113.938 57.899,116.181 56.677,118.046 55.620 C 119.910 54.562,122.333 53.219,123.430 52.635 C 125.995 51.267,129.747 48.937,133.932 46.112 C 135.761 44.878,137.475 43.868,137.743 43.868 C 138.011 43.868,138.834 43.423,139.572 42.878 C 140.310 42.334,141.735 41.575,142.740 41.192 C 143.744 40.810,145.543 39.909,146.736 39.191 C 147.930 38.474,149.155 37.886,149.459 37.886 C 149.764 37.886,151.300 37.270,152.873 36.517 C 154.446 35.764,156.271 35.021,156.929 34.866 C 157.587 34.710,159.596 33.980,161.393 33.244 C 163.190 32.507,165.254 31.898,165.979 31.891 C 166.705 31.883,168.644 31.334,170.289 30.670 C 173.935 29.198,187.156 28.100,196.810 28.466 C 206.868 28.848,210.114 27.081,211.155 20.659 C 211.416 19.047,210.561 16.442,209.689 16.191 C 209.405 16.110,208.425 15.841,207.510 15.593 C 206.596 15.345,204.580 14.150,203.031 12.937 C 197.941 8.955,196.961 8.842,189.831 11.420 M254.716 21.539 C 249.431 21.756,249.316 21.796,246.958 24.267 C 245.714 25.570,245.581 25.613,243.767 25.303 C 232.618 23.393,226.737 26.627,228.117 33.908 C 228.753 37.258,234.400 42.182,239.262 43.626 C 240.292 43.932,242.093 44.668,243.264 45.261 C 245.010 46.146,246.370 46.434,250.812 46.861 C 256.516 47.410,259.667 48.302,262.077 50.049 C 262.810 50.581,264.307 51.495,265.404 52.081 C 266.500 52.667,268.116 53.635,268.993 54.232 C 269.870 54.830,271.934 56.094,273.579 57.042 C 279.470 60.437,286.167 64.945,287.630 66.500 C 288.094 66.994,288.612 67.398,288.780 67.398 C 289.099 67.398,297.244 72.908,300.183 75.112 C 301.107 75.804,302.788 76.999,303.920 77.767 C 305.052 78.534,306.612 79.701,307.387 80.359 C 308.162 81.017,309.372 81.914,310.076 82.353 C 313.035 84.197,315.724 86.105,316.239 86.726 C 316.543 87.091,317.343 87.673,318.017 88.018 C 318.691 88.363,319.332 88.775,319.442 88.934 C 319.615 89.185,323.947 92.121,326.385 93.640 C 327.594 94.393,331.509 93.959,334.489 92.741 C 339.028 90.885,339.346 91.191,339.840 97.882 C 340.173 102.399,340.372 103.324,341.544 105.834 C 342.273 107.396,342.969 109.334,343.090 110.140 C 343.576 113.375,347.137 118.966,350.192 121.288 C 354.086 124.250,357.727 127.858,357.727 128.757 C 357.727 129.170,358.067 130.573,358.483 131.875 C 359.746 135.829,359.918 139.762,358.949 142.535 C 357.640 146.279,357.814 147.492,360.219 151.379 C 361.371 153.241,362.762 155.543,363.310 156.495 C 364.744 158.986,366.979 161.635,370.909 165.503 C 374.887 169.420,375.134 169.807,375.504 172.713 C 375.874 175.623,376.231 175.999,378.321 175.685 C 379.729 175.474,380.162 175.576,380.869 176.283 C 381.946 177.360,381.903 177.419,382.889 173.520 C 383.873 169.630,383.751 169.093,381.882 169.093 C 378.931 169.093,378.613 168.095,378.255 157.704 C 378.112 153.549,377.742 148.001,377.432 145.376 C 377.123 142.750,376.867 139.699,376.863 138.596 C 376.860 137.493,376.501 134.903,376.066 132.841 C 375.630 130.779,375.274 128.245,375.274 127.210 C 375.274 123.395,374.126 118.456,372.643 115.896 C 369.781 110.952,364.354 102.248,361.082 97.353 C 359.965 95.683,358.210 92.881,357.182 91.127 C 356.153 89.372,353.612 85.244,351.536 81.954 C 346.656 74.222,345.975 73.131,343.192 68.594 C 337.029 58.548,334.780 55.525,329.287 49.913 C 324.127 44.640,318.407 40.178,312.064 36.477 C 310.967 35.838,309.531 34.997,308.873 34.608 C 305.493 32.615,299.509 29.767,295.278 28.139 C 292.666 27.134,289.990 26.070,289.332 25.775 C 288.674 25.479,286.431 24.760,284.347 24.175 C 282.263 23.591,279.661 22.854,278.564 22.539 C 276.341 21.898,265.492 21.036,261.952 21.218 C 260.695 21.283,257.439 21.427,254.716 21.539 M91.032 121.139 C 88.314 121.246,87.679 121.397,87.349 122.014 C 86.737 123.157,86.991 279.772,87.606 280.387 C 88.535 281.317,115.282 280.890,116.251 279.931 C 117.041 279.148,117.050 278.542,117.152 216.639 C 117.209 182.263,117.337 153.914,117.438 153.641 C 118.561 150.586,150.391 150.426,151.315 153.471 C 151.427 153.838,151.554 181.505,151.598 214.955 C 151.678 275.994,151.746 279.736,152.780 280.391 C 154.056 281.199,212.771 280.832,213.513 280.011 C 214.142 279.317,214.188 274.970,214.179 217.210 C 214.169 151.399,214.094 153.738,216.269 152.393 C 217.867 151.406,243.349 151.058,246.014 151.987 C 248.629 152.899,248.459 148.521,248.491 216.039 C 248.519 276.753,248.588 280.019,249.858 280.506 C 250.698 280.828,309.130 280.864,309.967 280.543 C 311.231 280.057,311.267 277.977,311.067 216.219 C 310.871 155.874,310.852 154.660,310.093 154.105 C 309.460 153.643,306.821 153.539,295.617 153.539 C 279.662 153.539,279.894 153.585,279.197 150.337 C 278.935 149.114,278.764 143.145,278.764 135.224 C 278.764 123.532,278.693 122.073,278.104 121.584 C 277.499 121.082,103.012 120.666,91.032 121.139 " stroke="none" fill="#f8fa07" fill-rule="evenodd"></path><path id="path1" d="M211.149 20.668 C 209.790 27.326,207.624 28.564,197.607 28.411 C 185.835 28.230,173.886 29.218,170.289 30.670 C 168.644 31.334,166.705 31.883,165.979 31.891 C 165.254 31.898,163.190 32.507,161.393 33.244 C 159.596 33.980,157.587 34.710,156.929 34.866 C 156.271 35.021,154.446 35.764,152.873 36.517 C 151.300 37.270,149.764 37.886,149.459 37.886 C 149.155 37.886,147.930 38.474,146.736 39.191 C 145.543 39.909,143.744 40.810,142.740 41.192 C 141.735 41.575,140.310 42.334,139.572 42.878 C 138.834 43.423,138.011 43.868,137.743 43.868 C 137.475 43.868,135.761 44.878,133.932 46.112 C 129.747 48.937,125.995 51.267,123.430 52.635 C 122.333 53.219,119.910 54.562,118.046 55.620 C 116.181 56.677,113.938 57.899,113.061 58.336 C 112.183 58.773,110.963 59.550,110.350 60.064 C 109.736 60.578,108.585 61.305,107.793 61.682 C 107.000 62.058,104.977 63.632,103.297 65.181 C 101.617 66.729,97.473 70.508,94.089 73.578 C 85.160 81.679,70.045 97.050,68.840 99.255 C 68.646 99.610,68.081 100.349,67.584 100.897 C 66.521 102.070,60.609 110.916,59.702 112.691 C 59.357 113.365,58.779 114.163,58.416 114.464 C 57.699 115.059,54.237 121.715,54.237 122.499 C 54.237 122.763,53.589 124.233,52.796 125.765 C 52.003 127.297,51.017 129.964,50.604 131.691 C 50.191 133.419,49.511 135.586,49.092 136.509 C 48.673 137.431,48.210 139.083,48.063 140.179 C 47.916 141.276,47.272 145.135,46.631 148.754 C 45.990 152.373,45.297 157.850,45.091 160.924 C 44.884 163.999,44.176 170.370,43.517 175.082 C 42.857 179.794,42.156 186.251,41.959 189.432 C 41.576 195.611,41.295 196.573,37.773 203.789 C 36.048 207.321,36.055 211.773,37.799 220.339 C 39.944 230.880,39.846 235.693,37.486 235.693 C 37.045 235.693,35.494 238.928,35.494 239.847 C 35.494 242.888,38.282 246.451,39.886 245.460 C 41.277 244.600,44.612 249.046,45.246 252.604 C 45.398 253.460,46.037 255.255,46.665 256.592 C 48.120 259.692,48.333 261.331,47.306 261.541 C 46.307 261.745,45.876 260.969,45.869 258.952 C 45.862 257.263,45.255 256.276,43.966 255.860 C 43.583 255.736,42.964 255.096,42.591 254.438 C 41.803 253.050,40.637 252.883,39.521 253.998 C 38.777 254.742,38.742 254.742,37.518 253.998 C 35.309 252.655,33.617 253.529,34.067 255.781 C 34.356 257.225,37.330 260.166,38.174 259.842 C 38.491 259.720,38.817 259.621,38.901 259.621 C 38.984 259.621,39.245 258.903,39.482 258.026 C 40.461 254.387,42.672 256.293,42.672 260.777 C 42.672 266.488,47.920 270.089,48.838 265.007 L 49.126 263.414 50.086 264.531 C 50.615 265.145,51.047 265.913,51.047 266.237 C 51.047 266.561,51.540 267.742,52.144 268.860 C 52.747 269.979,53.492 271.364,53.799 271.938 C 54.706 273.630,57.935 277.283,67.568 287.518 C 74.399 294.776,86.415 306.425,91.726 310.937 C 92.714 311.776,95.484 314.411,97.882 316.792 C 100.280 319.173,104.558 323.198,107.388 325.737 C 110.218 328.276,113.640 331.511,114.991 332.927 C 118.185 336.273,119.047 336.621,123.379 336.316 L 126.820 336.073 126.820 337.106 C 126.820 337.674,126.640 338.249,126.421 338.385 C 125.382 339.027,126.574 341.775,127.892 341.775 C 128.118 341.775,129.001 342.252,129.855 342.835 C 130.708 343.418,132.434 344.300,133.691 344.796 C 134.948 345.292,136.504 346.073,137.148 346.532 C 137.793 346.991,139.205 347.534,140.286 347.739 C 141.367 347.944,143.311 348.588,144.605 349.170 C 146.414 349.983,148.022 350.318,151.545 350.615 C 154.068 350.827,158.913 351.429,162.313 351.953 C 167.636 352.772,172.640 353.305,180.259 353.863 C 181.246 353.936,184.118 354.550,186.640 355.228 C 189.163 355.907,192.393 356.587,193.819 356.740 C 195.244 356.893,197.846 357.470,199.601 358.021 C 203.844 359.354,206.698 359.338,210.768 357.958 C 213.106 357.166,215.289 356.782,218.943 356.521 C 227.778 355.891,230.108 355.094,234.607 351.166 C 236.415 349.589,236.962 348.838,237.147 347.684 C 237.585 344.940,240.616 343.484,242.444 345.139 C 243.212 345.834,245.480 345.983,245.862 345.364 C 245.998 345.145,246.463 344.965,246.896 344.965 C 247.375 344.965,248.010 344.413,248.514 343.559 C 249.475 341.930,250.342 341.376,251.933 341.376 C 252.617 341.376,253.622 340.905,254.452 340.196 C 256.536 338.414,258.850 338.486,259.959 340.366 C 261.207 342.480,264.245 342.758,266.523 340.967 C 267.785 339.974,268.678 339.976,270.189 340.977 C 272.397 342.439,277.393 342.124,279.679 340.379 C 280.685 339.611,281.625 338.983,281.768 338.983 C 282.086 338.983,288.908 334.441,291.924 332.221 C 293.131 331.334,294.504 330.439,294.976 330.233 C 295.448 330.028,295.946 329.680,296.081 329.461 C 296.217 329.241,297.356 328.475,298.613 327.758 C 301.000 326.396,304.202 324.111,304.885 323.282 C 305.105 323.016,306.002 322.360,306.879 321.824 C 309.186 320.415,320.124 312.613,322.233 310.872 C 323.220 310.057,325.282 308.497,326.814 307.406 C 329.872 305.228,331.468 304.007,334.016 301.894 C 334.942 301.127,336.736 299.781,338.003 298.903 C 339.269 298.026,341.758 296.101,343.533 294.626 C 346.378 292.260,346.958 291.942,348.439 291.934 C 349.486 291.928,350.312 291.685,350.632 291.288 C 352.369 289.139,352.957 288.734,354.336 288.734 C 356.113 288.734,359.086 286.125,360.859 283.011 C 361.502 281.881,363.297 279.656,364.848 278.066 C 367.369 275.482,368.044 274.996,368.950 275.113 C 369.295 275.157,370.887 271.413,370.887 270.557 C 370.887 270.134,370.350 270.579,369.473 271.727 C 368.696 272.746,367.871 273.579,367.640 273.579 C 366.909 273.579,361.296 279.663,359.658 282.231 C 357.463 285.672,355.705 287.139,353.774 287.139 C 352.931 287.139,352.029 287.394,351.770 287.706 C 351.511 288.018,349.827 289.013,348.029 289.917 C 346.230 290.820,344.042 292.165,343.167 292.905 C 340.511 295.151,337.900 297.248,336.307 298.416 C 335.476 299.025,332.879 300.999,330.536 302.802 C 328.194 304.606,324.964 307.029,323.358 308.187 C 321.752 309.345,319.541 311.005,318.445 311.876 C 317.348 312.747,315.553 314.090,314.457 314.861 C 313.360 315.631,310.739 317.471,308.632 318.948 C 306.526 320.426,303.385 322.676,301.653 323.948 C 299.922 325.220,295.992 327.922,292.921 329.954 C 289.850 331.986,286.171 334.489,284.746 335.518 C 283.320 336.546,281.491 337.745,280.681 338.182 C 279.872 338.618,278.545 339.426,277.734 339.976 C 275.866 341.244,273.334 341.327,271.862 340.169 C 271.297 339.724,270.229 339.108,269.490 338.799 C 268.051 338.198,268.023 338.206,265.172 340.078 C 263.460 341.203,262.592 341.211,261.711 340.110 C 259.147 336.905,256.972 336.531,253.657 338.724 C 252.708 339.353,251.505 339.781,250.689 339.781 C 249.558 339.781,249.170 340.020,248.474 341.145 C 246.678 344.051,244.195 344.755,242.089 342.955 C 239.896 341.081,237.545 342.387,236.285 346.181 C 235.687 347.981,230.546 353.329,229.399 353.344 C 229.242 353.346,227.343 353.705,225.180 354.143 C 223.016 354.580,218.978 355.215,216.206 355.554 C 213.434 355.893,210.281 356.431,209.200 356.749 C 205.816 357.745,201.488 357.218,189.232 354.318 C 186.162 353.591,182.213 352.885,180.459 352.748 C 178.704 352.612,176.102 352.255,174.676 351.955 C 170.861 351.152,162.420 350.196,156.730 349.921 C 152.676 349.725,150.896 349.426,147.201 348.320 C 144.702 347.571,142.305 346.959,141.874 346.959 C 141.443 346.959,139.899 346.349,138.442 345.603 C 136.985 344.857,134.985 343.869,133.998 343.407 C 127.777 340.497,127.409 339.992,129.158 336.764 C 130.865 333.612,130.019 332.547,126.959 333.995 C 121.936 336.372,120.030 335.856,114.678 330.675 C 112.472 328.540,109.681 325.914,108.475 324.839 C 107.268 323.764,103.074 319.822,99.155 316.079 C 95.236 312.335,91.892 309.182,91.724 309.073 C 88.599 307.024,66.221 284.412,57.783 274.776 C 55.495 272.162,51.446 264.912,51.446 263.429 C 51.446 263.247,50.938 262.272,50.318 261.260 C 49.699 260.249,48.973 258.549,48.706 257.482 C 48.439 256.415,47.717 254.531,47.100 253.295 C 46.484 252.058,45.872 250.486,45.741 249.800 C 45.109 246.486,42.719 244.068,40.077 244.068 C 37.643 244.068,36.319 241.669,37.227 238.905 C 37.668 237.564,38.018 237.328,40.578 236.648 C 41.174 236.490,41.232 233.444,40.684 231.107 C 40.478 230.229,40.114 227.358,39.875 224.726 C 39.635 222.094,39.090 217.935,38.663 215.485 C 37.497 208.798,37.862 206.698,41.488 199.202 C 42.440 197.232,42.717 195.964,43.055 192.024 C 43.280 189.392,43.824 184.726,44.263 181.655 C 44.702 178.584,45.246 173.559,45.471 170.489 C 46.032 162.861,46.496 158.903,47.440 153.710 C 47.881 151.281,48.414 147.423,48.625 145.136 C 48.907 142.078,49.318 140.232,50.179 138.162 C 50.823 136.614,51.475 134.550,51.628 133.576 C 52.072 130.752,56.852 119.604,59.143 116.052 C 67.307 103.390,68.659 101.397,70.205 99.755 C 70.543 99.396,72.248 97.493,73.994 95.527 C 79.476 89.350,94.343 74.807,98.494 71.559 C 99.036 71.135,100.815 69.485,102.448 67.893 C 105.046 65.359,114.084 59.023,115.099 59.023 C 115.300 59.023,116.397 58.395,117.537 57.627 C 118.677 56.859,119.776 56.231,119.979 56.231 C 120.183 56.231,121.262 55.603,122.378 54.835 C 123.494 54.068,124.571 53.440,124.770 53.440 C 124.970 53.440,126.208 52.722,127.522 51.844 C 128.836 50.967,130.039 50.249,130.196 50.249 C 130.353 50.249,131.587 49.502,132.938 48.590 C 134.289 47.677,135.846 46.625,136.398 46.253 C 138.123 45.090,150.866 38.804,152.542 38.288 C 153.420 38.019,154.870 37.379,155.765 36.868 C 156.660 36.356,158.275 35.720,159.354 35.455 C 160.433 35.189,162.266 34.557,163.427 34.051 C 164.587 33.544,166.651 32.935,168.013 32.697 C 169.374 32.460,171.341 31.990,172.383 31.654 C 176.611 30.290,180.858 29.887,193.420 29.662 C 208.715 29.388,210.006 28.979,212.396 23.659 C 212.906 22.524,213.588 21.447,213.911 21.266 C 214.354 21.018,214.114 20.773,212.932 20.269 L 211.366 19.601 211.149 20.668 M227.418 25.423 C 227.979 25.737,227.718 27.547,226.873 29.204 C 224.459 33.934,230.241 42.306,237.411 44.464 C 238.374 44.753,240.049 45.440,241.133 45.989 C 243.100 46.986,247.037 47.866,253.865 48.836 C 257.685 49.379,260.132 50.286,262.391 51.999 C 263.146 52.572,263.940 53.041,264.156 53.041 C 264.371 53.041,265.458 53.646,266.571 54.385 C 268.436 55.625,269.388 56.207,274.144 59.023 C 278.897 61.836,280.113 62.639,284.320 65.738 C 286.828 67.585,289.789 69.699,290.901 70.436 C 292.012 71.172,294.177 72.671,295.713 73.765 C 297.248 74.859,299.402 76.377,300.499 77.137 C 301.595 77.897,303.480 79.247,304.686 80.137 C 307.599 82.287,308.992 83.290,313.260 86.314 C 315.234 87.713,317.478 89.326,318.245 89.899 C 321.075 92.009,325.272 94.670,326.926 95.402 L 328.628 96.155 331.644 95.114 C 336.221 93.534,337.501 93.779,337.908 96.311 C 338.699 101.223,339.603 104.907,340.696 107.677 C 341.345 109.322,342.038 111.357,342.234 112.200 C 342.905 115.069,345.943 119.687,348.571 121.834 C 356.327 128.170,356.710 128.706,357.539 134.358 C 358.156 138.564,358.155 139.069,357.517 142.283 C 356.681 146.496,356.920 148.940,358.405 151.365 C 359.019 152.367,359.791 153.682,360.120 154.287 C 360.449 154.892,361.167 156.000,361.715 156.750 C 362.263 157.501,362.925 158.519,363.184 159.013 C 363.923 160.418,366.798 163.733,370.337 167.260 C 374.062 170.974,374.477 171.634,374.477 173.852 C 374.477 175.901,375.545 177.069,377.419 177.069 C 379.721 177.069,379.842 177.599,378.847 183.334 C 377.867 188.975,377.941 194.975,379.037 198.804 C 379.598 200.767,379.608 200.708,379.634 194.970 C 379.649 191.764,379.846 188.175,380.072 186.994 C 380.298 185.812,380.658 183.589,380.871 182.054 C 381.085 180.518,381.360 178.780,381.483 178.191 C 381.844 176.463,380.459 175.365,378.321 175.685 C 376.231 175.999,375.874 175.623,375.504 172.713 C 375.134 169.807,374.887 169.420,370.909 165.503 C 366.979 161.635,364.744 158.986,363.310 156.495 C 362.762 155.543,361.371 153.241,360.219 151.379 C 357.814 147.492,357.640 146.279,358.949 142.535 C 359.918 139.762,359.746 135.829,358.483 131.875 C 358.067 130.573,357.727 129.170,357.727 128.757 C 357.727 127.858,354.086 124.250,350.192 121.288 C 347.137 118.966,343.576 113.375,343.090 110.140 C 342.969 109.334,342.273 107.396,341.544 105.834 C 340.372 103.324,340.173 102.399,339.840 97.882 C 339.346 91.191,339.028 90.885,334.489 92.741 C 331.509 93.959,327.594 94.393,326.385 93.640 C 323.947 92.121,319.615 89.185,319.442 88.934 C 319.332 88.775,318.691 88.363,318.017 88.018 C 317.343 87.673,316.543 87.091,316.239 86.726 C 315.724 86.105,313.035 84.197,310.076 82.353 C 309.372 81.914,308.162 81.017,307.387 80.359 C 306.612 79.701,305.052 78.534,303.920 77.767 C 302.788 76.999,301.107 75.804,300.183 75.112 C 297.244 72.908,289.099 67.398,288.780 67.398 C 288.612 67.398,288.094 66.994,287.630 66.500 C 286.167 64.945,279.470 60.437,273.579 57.042 C 271.934 56.094,269.870 54.830,268.993 54.232 C 268.116 53.635,266.500 52.667,265.404 52.081 C 264.307 51.495,262.810 50.581,262.077 50.049 C 259.667 48.302,256.516 47.410,250.812 46.861 C 246.370 46.434,245.010 46.146,243.264 45.261 C 242.093 44.668,240.292 43.932,239.262 43.626 C 236.976 42.947,232.042 39.745,230.012 37.624 C 227.378 34.870,227.226 29.565,229.705 26.925 L 230.547 26.030 229.431 25.804 C 228.817 25.681,228.046 25.506,227.717 25.417 C 227.388 25.328,227.253 25.331,227.418 25.423 M86.569 120.693 C 85.556 121.980,85.687 109.691,85.708 201.300 C 85.728 286.970,85.606 282.324,87.847 282.372 C 95.959 282.547,116.684 282.256,117.237 281.960 C 118.845 281.100,118.843 281.162,118.843 216.890 C 118.843 155.268,118.850 154.729,119.641 153.938 C 120.844 152.735,148.304 152.691,149.504 153.891 C 150.231 154.618,150.256 156.551,150.323 217.367 C 150.392 280.095,150.416 281.187,151.705 282.048 C 152.956 282.883,214.105 282.376,214.899 281.524 C 216.139 280.193,216.139 280.180,216.130 216.123 C 216.122 152.120,216.087 153.757,217.475 153.385 C 218.597 153.084,243.996 153.079,245.116 153.379 C 246.935 153.867,246.895 152.419,246.868 216.833 C 246.851 258.352,246.978 278.520,247.262 279.574 C 248.059 282.534,245.906 282.353,280.233 282.353 L 311.036 282.353 311.833 281.497 C 312.272 281.026,312.730 279.905,312.852 279.004 C 313.357 275.273,312.877 154.963,312.354 154.047 C 311.371 152.328,310.742 152.251,296.665 152.128 C 289.253 152.063,282.811 151.890,282.349 151.744 C 280.740 151.233,280.606 150.006,280.582 135.505 L 280.558 121.657 279.650 120.749 L 278.742 119.840 183.068 119.742 L 87.395 119.643 86.569 120.693 M278.104 121.584 C 278.693 122.073,278.764 123.532,278.764 135.224 C 278.764 143.145,278.935 149.114,279.197 150.337 C 279.894 153.585,279.662 153.539,295.617 153.539 C 306.821 153.539,309.460 153.643,310.093 154.105 C 310.852 154.660,310.871 155.874,311.067 216.219 C 311.267 277.977,311.231 280.057,309.967 280.543 C 309.130 280.864,250.698 280.828,249.858 280.506 C 248.588 280.019,248.519 276.753,248.491 216.039 C 248.459 148.521,248.629 152.899,246.014 151.987 C 243.349 151.058,217.867 151.406,216.269 152.393 C 214.094 153.738,214.169 151.399,214.179 217.210 C 214.188 274.970,214.142 279.317,213.513 280.011 C 212.771 280.832,154.056 281.199,152.780 280.391 C 151.746 279.736,151.678 275.994,151.598 214.955 C 151.554 181.505,151.427 153.838,151.315 153.471 C 150.391 150.426,118.561 150.586,117.438 153.641 C 117.337 153.914,117.209 182.263,117.152 216.639 C 117.050 278.542,117.041 279.148,116.251 279.931 C 115.282 280.890,88.535 281.317,87.606 280.387 C 86.991 279.772,86.737 123.157,87.349 122.014 C 87.911 120.964,83.578 121.008,185.881 121.023 C 262.888 121.035,277.550 121.124,278.104 121.584 " stroke="none" fill="#f6f780" fill-rule="evenodd"></path><path id="path2" d="M214.419 23.062 C 214.056 23.463,213.759 24.096,213.759 24.467 C 213.759 25.155,209.824 29.224,208.375 30.034 C 207.866 30.319,202.963 30.582,194.816 30.762 C 182.311 31.039,179.128 31.330,175.754 32.505 C 174.832 32.826,173.360 33.095,172.483 33.101 C 170.570 33.116,167.238 33.914,164.506 35.011 C 163.410 35.452,161.615 36.020,160.518 36.272 C 159.422 36.525,157.896 37.151,157.129 37.664 C 156.361 38.177,154.477 39.000,152.941 39.494 C 151.406 39.988,149.687 40.716,149.121 41.112 C 148.555 41.508,145.970 42.840,143.377 44.073 C 140.784 45.305,137.209 47.266,135.433 48.430 C 133.657 49.595,131.453 50.926,130.536 51.390 C 129.618 51.853,128.761 52.404,128.631 52.615 C 128.412 52.969,122.615 56.242,116.771 59.312 C 115.424 60.019,113.859 61.024,113.293 61.547 C 112.727 62.069,110.915 63.229,109.268 64.125 C 107.620 65.021,105.730 66.348,105.066 67.074 C 103.782 68.481,99.717 72.313,96.112 75.516 C 89.760 81.159,87.917 82.858,86.976 83.940 C 85.715 85.390,84.345 86.759,80.815 90.098 C 79.326 91.506,77.455 93.480,76.658 94.485 C 75.861 95.489,73.945 97.678,72.400 99.349 C 68.758 103.288,67.859 104.460,66.990 106.401 C 66.596 107.281,65.383 109.139,64.294 110.531 C 63.205 111.922,61.836 113.958,61.252 115.055 C 60.667 116.152,59.742 117.666,59.195 118.421 C 58.649 119.176,58.107 120.252,57.990 120.814 C 57.874 121.375,57.576 122.193,57.328 122.632 C 56.271 124.506,55.035 127.253,55.035 127.730 C 55.035 128.014,54.671 128.957,54.227 129.826 C 53.783 130.695,53.083 133.021,52.671 134.995 C 51.850 138.940,51.513 139.980,51.059 139.980 C 50.360 139.980,49.485 144.525,49.254 149.352 C 49.118 152.203,48.676 155.882,48.272 157.527 C 47.285 161.544,46.743 166.167,46.471 172.881 C 46.165 180.437,45.509 185.983,44.613 188.588 C 44.204 189.779,43.868 191.769,43.868 193.010 C 43.868 196.446,43.133 199.703,41.839 201.995 C 39.858 205.505,38.878 209.981,39.612 212.164 C 39.966 213.218,40.306 216.179,40.436 219.342 C 40.583 222.929,40.955 225.923,41.551 228.315 C 43.272 235.223,42.805 238.396,40.000 238.848 C 37.415 239.264,37.685 242.871,40.302 242.871 C 43.436 242.871,45.584 244.801,46.727 248.644 C 47.186 250.185,47.873 251.984,48.254 252.642 C 48.636 253.300,49.061 254.441,49.198 255.176 C 49.336 255.912,50.330 258.335,51.407 260.560 C 54.416 266.777,55.035 268.195,55.035 268.879 C 55.035 269.853,60.548 276.789,63.005 278.907 C 64.638 280.315,66.642 282.376,69.591 285.682 C 71.127 287.403,72.898 289.311,73.527 289.922 C 74.156 290.532,74.844 291.218,75.055 291.446 C 76.811 293.342,78.169 294.662,82.114 298.305 C 84.608 300.608,87.117 303.013,87.691 303.649 C 88.759 304.833,89.718 305.743,95.677 311.229 C 97.561 312.963,100.913 316.104,103.125 318.208 C 105.338 320.312,108.166 322.931,109.410 324.028 C 110.654 325.125,113.493 327.764,115.720 329.893 C 120.724 334.677,122.420 335.098,126.549 332.581 C 130.510 330.165,133.258 333.847,130.390 337.727 C 129.317 339.178,129.586 339.687,132.002 340.777 C 132.880 341.173,133.599 341.630,133.599 341.793 C 133.599 341.956,134.811 342.572,136.291 343.162 C 137.772 343.753,139.257 344.482,139.593 344.782 C 140.272 345.390,144.410 346.560,145.879 346.560 C 146.399 346.560,148.112 346.986,149.684 347.507 C 151.955 348.259,154.141 348.555,160.319 348.945 C 172.043 349.686,174.736 349.979,176.358 350.693 C 177.174 351.052,178.352 351.346,178.977 351.346 C 180.761 351.346,191.197 353.189,192.076 353.660 C 193.207 354.265,198.994 355.246,203.190 355.542 C 206.756 355.794,209.869 355.399,221.934 353.162 C 223.689 352.836,225.809 352.564,226.646 352.556 C 231.105 352.516,234.545 348.396,236.813 340.379 C 237.028 339.619,237.452 339.138,237.975 339.061 C 238.918 338.921,242.681 341.102,243.020 341.984 C 243.507 343.255,245.360 342.639,247.315 340.557 C 248.752 339.026,249.573 338.486,250.725 338.309 C 251.560 338.182,252.519 337.839,252.856 337.548 C 255.616 335.166,261.436 335.416,262.402 337.959 C 262.947 339.390,263.471 339.508,264.832 338.503 C 266.727 337.103,270.572 337.199,272.345 338.691 C 274.273 340.313,277.670 339.467,280.959 336.547 C 282.594 335.096,295.230 326.711,297.544 325.543 C 298.551 325.034,300.463 323.633,301.794 322.429 C 303.124 321.225,304.343 320.239,304.502 320.239 C 304.660 320.239,305.664 319.611,306.733 318.843 C 307.802 318.076,308.819 317.448,308.993 317.448 C 309.168 317.448,309.930 316.816,310.687 316.043 C 311.444 315.271,312.602 314.397,313.260 314.102 C 313.918 313.807,315.010 313.049,315.686 312.416 C 316.362 311.784,318.067 310.402,319.475 309.345 C 320.882 308.288,323.269 306.494,324.780 305.357 C 326.290 304.220,328.084 302.955,328.768 302.546 C 329.451 302.137,330.663 301.240,331.460 300.552 C 334.340 298.070,336.146 296.710,336.561 296.710 C 336.794 296.710,338.376 295.497,340.077 294.015 C 344.903 289.812,351.897 285.543,353.958 285.543 C 355.439 285.543,356.724 284.538,358.204 282.221 C 359.729 279.835,364.741 274.242,366.673 272.773 C 368.897 271.080,370.113 269.336,370.477 267.315 C 370.666 266.264,371.095 264.596,371.430 263.609 C 372.056 261.765,372.517 259.195,373.469 252.243 C 373.769 250.050,374.398 246.461,374.866 244.267 C 375.333 242.074,375.969 238.305,376.279 235.892 C 376.588 233.480,377.104 229.782,377.425 227.676 C 379.112 216.606,379.141 210.737,377.565 199.402 C 377.010 195.413,376.947 189.848,377.382 183.386 L 377.695 178.735 376.292 178.272 C 374.370 177.638,373.280 176.144,373.280 174.145 C 373.280 172.157,371.835 169.912,369.873 168.856 C 369.115 168.448,368.492 167.930,368.489 167.706 C 368.486 167.482,367.403 166.132,366.083 164.706 C 363.718 162.152,360.628 157.868,359.180 155.135 C 358.773 154.367,358.112 153.380,357.711 152.941 C 355.954 151.019,355.429 147.196,356.320 142.824 C 356.989 139.545,356.672 133.079,355.720 130.574 C 355.179 129.151,352.349 126.237,350.119 124.806 C 349.039 124.113,348.156 123.414,348.156 123.252 C 348.156 123.091,347.523 122.509,346.751 121.959 C 343.977 119.986,341.375 114.664,338.599 105.284 C 337.982 103.200,337.278 100.990,337.034 100.373 C 336.790 99.755,336.590 98.540,336.590 97.671 C 336.590 95.015,333.779 94.770,330.877 97.172 C 330.257 97.686,329.553 98.106,329.314 98.106 C 328.530 98.106,321.065 93.651,317.846 91.263 C 317.298 90.856,315.593 89.681,314.058 88.652 C 312.522 87.622,310.310 85.919,309.140 84.866 C 307.971 83.813,306.844 82.951,306.636 82.951 C 306.428 82.951,305.376 82.278,304.299 81.456 C 301.015 78.948,299.019 77.561,296.353 75.934 C 294.950 75.077,293.198 73.797,292.458 73.088 C 291.719 72.379,290.550 71.507,289.862 71.151 C 289.173 70.795,288.413 70.337,288.173 70.134 C 287.933 69.931,286.570 68.931,285.145 67.912 C 283.719 66.892,281.655 65.394,280.558 64.581 C 279.462 63.768,278.157 62.980,277.660 62.829 C 277.162 62.677,276.175 62.011,275.466 61.348 C 274.757 60.685,273.460 59.798,272.582 59.377 C 270.234 58.250,266.833 56.211,264.841 54.736 C 263.878 54.023,262.893 53.440,262.651 53.440 C 262.409 53.440,261.327 52.812,260.248 52.044 C 258.441 50.760,258.055 50.648,255.414 50.648 C 253.821 50.648,251.766 50.371,250.798 50.025 C 249.838 49.682,247.168 48.954,244.865 48.407 C 242.562 47.861,240.319 47.179,239.880 46.894 C 239.442 46.608,238.082 46.084,236.860 45.729 C 235.637 45.374,234.291 44.699,233.869 44.230 C 233.446 43.761,232.316 42.836,231.357 42.174 C 225.924 38.427,223.172 32.561,225.324 29.312 C 227.004 26.775,226.289 25.466,222.931 24.932 C 221.944 24.774,219.822 24.125,218.215 23.489 C 214.755 22.120,215.224 22.172,214.419 23.062 M188.949 118.058 C 285.252 118.047,279.393 117.908,280.923 120.243 C 281.587 121.257,281.655 122.511,281.702 134.772 C 281.772 152.538,280.073 150.825,297.507 150.703 C 313.589 150.591,313.860 150.679,313.856 156.032 C 313.855 157.841,313.870 186.510,313.889 219.741 C 313.912 258.252,313.783 280.527,313.534 281.173 C 312.654 283.460,314.350 283.340,281.082 283.462 C 246.300 283.588,247.753 283.702,246.252 280.740 L 245.248 278.759 245.273 217.061 L 245.298 155.363 244.384 154.659 C 242.816 153.453,218.973 153.748,217.732 154.990 C 217.452 155.269,217.314 175.226,217.300 217.125 C 217.279 282.749,217.297 282.104,215.451 283.009 C 214.382 283.533,153.452 283.664,151.531 283.147 C 148.565 282.348,148.802 287.857,148.728 218.057 C 148.669 162.335,148.593 155.099,148.056 154.653 C 147.132 153.887,121.628 153.919,120.699 154.687 C 120.083 155.196,120.034 159.845,120.031 217.100 C 120.029 275.640,119.931 281.425,118.923 282.433 C 118.017 283.339,114.641 283.558,101.465 283.570 C 85.974 283.583,85.660 283.540,84.932 281.281 C 84.663 280.445,84.287 279.563,84.096 279.322 C 83.906 279.080,83.775 278.452,83.807 277.926 C 83.838 277.400,83.908 242.001,83.962 199.262 L 84.060 121.555 85.790 119.792 L 87.520 118.029 90.321 118.259 C 91.861 118.385,94.197 118.315,95.513 118.103 C 96.830 117.890,98.445 117.796,99.103 117.892 C 99.761 117.988,140.191 118.063,188.949 118.058 " stroke="none" fill="#fbfbfb" fill-rule="evenodd"></path><path id="path3" d="M192.722 5.449 C 192.448 5.559,192.223 5.904,192.223 6.215 C 192.223 6.605,191.744 6.780,190.671 6.780 C 189.729 6.780,189.036 6.993,188.910 7.322 C 188.795 7.623,187.881 7.957,186.857 8.073 C 185.843 8.187,184.692 8.571,184.299 8.926 C 183.907 9.281,183.122 9.571,182.554 9.571 C 181.112 9.571,180.259 9.958,180.259 10.611 C 180.259 11.001,179.740 11.167,178.513 11.167 C 177.462 11.167,176.574 11.400,176.280 11.754 C 176.012 12.077,175.182 12.456,174.436 12.596 C 173.668 12.740,173.081 13.090,173.081 13.404 C 173.081 13.774,172.605 13.958,171.648 13.958 C 170.550 13.958,170.166 14.145,170.006 14.756 C 169.851 15.348,169.462 15.553,168.495 15.553 C 167.527 15.553,167.138 15.759,166.983 16.351 C 166.831 16.934,166.439 17.149,165.528 17.149 C 164.788 17.149,164.189 17.392,164.052 17.747 C 163.747 18.542,161.914 18.537,161.914 17.741 C 161.914 17.409,161.707 16.736,161.453 16.246 C 161.200 15.755,160.867 15.085,160.714 14.756 C 160.223 13.703,154.333 13.688,154.058 14.738 C 153.939 15.195,153.515 15.553,153.094 15.553 C 152.609 15.553,152.343 15.836,152.343 16.351 C 152.343 16.805,152.077 17.149,151.726 17.149 C 151.090 17.149,149.153 18.994,149.153 19.600 C 149.153 19.787,148.967 19.940,148.740 19.940 C 148.514 19.940,147.722 20.523,146.981 21.236 C 144.669 23.459,143.523 24.327,142.900 24.327 C 142.569 24.327,142.204 24.686,142.090 25.125 C 141.892 25.880,141.546 25.922,135.534 25.922 C 130.260 25.922,129.149 26.023,128.958 26.520 C 128.832 26.849,128.297 27.119,127.770 27.119 C 127.243 27.119,126.504 27.478,126.129 27.916 C 125.753 28.355,125.039 28.714,124.541 28.714 C 124.043 28.714,123.412 29.073,123.138 29.511 C 122.864 29.950,122.512 30.309,122.355 30.309 C 121.932 30.309,120.040 32.279,120.040 32.720 C 120.040 32.929,119.754 33.101,119.404 33.101 C 119.055 33.101,118.675 33.460,118.560 33.898 C 118.446 34.337,118.099 34.696,117.790 34.696 C 117.481 34.696,117.118 35.250,116.982 35.927 C 116.847 36.603,116.492 37.251,116.195 37.365 C 115.897 37.479,115.653 37.873,115.653 38.239 C 115.653 38.606,115.294 39.213,114.855 39.588 C 114.417 39.964,114.058 40.632,114.058 41.073 C 114.058 41.852,113.806 41.874,105.117 41.874 C 95.884 41.874,94.915 41.973,94.915 42.914 C 94.915 43.220,94.629 43.470,94.280 43.470 C 93.930 43.470,93.550 43.829,93.436 44.267 C 93.321 44.706,92.979 45.065,92.675 45.065 C 92.372 45.065,92.124 45.334,92.124 45.663 C 92.124 45.992,91.774 46.261,91.347 46.261 C 90.919 46.261,90.085 46.710,89.494 47.258 C 88.902 47.807,88.265 48.255,88.077 48.255 C 87.890 48.255,87.737 48.503,87.737 48.807 C 87.737 49.110,87.378 49.452,86.939 49.567 C 86.500 49.682,86.142 50.062,86.142 50.411 C 86.142 50.761,85.943 51.047,85.699 51.047 C 85.087 51.047,83.365 52.732,83.357 53.340 C 83.353 53.614,82.991 53.838,82.552 53.838 C 82.021 53.838,81.755 54.104,81.755 54.636 C 81.755 55.168,81.489 55.434,80.957 55.434 C 80.514 55.434,80.160 55.700,80.160 56.032 C 80.160 56.361,79.902 56.630,79.588 56.630 C 79.274 56.630,78.903 56.989,78.764 57.428 C 78.624 57.866,78.253 58.225,77.939 58.225 C 77.625 58.225,77.368 58.584,77.368 59.023 C 77.368 59.555,77.102 59.821,76.570 59.821 C 76.132 59.821,75.773 60.069,75.773 60.372 C 75.773 60.676,75.414 61.018,74.975 61.133 C 74.536 61.247,74.177 61.627,74.177 61.977 C 74.177 62.326,73.908 62.612,73.579 62.612 C 73.247 62.612,72.981 62.967,72.981 63.410 C 72.981 63.942,72.715 64.207,72.183 64.207 C 71.745 64.207,71.386 64.464,71.386 64.779 C 71.386 65.093,71.027 65.464,70.588 65.603 C 70.150 65.742,69.791 66.113,69.791 66.428 C 69.791 66.742,69.521 66.999,69.192 66.999 C 68.860 66.999,68.594 67.353,68.594 67.797 C 68.594 68.328,68.328 68.594,67.797 68.594 C 67.358 68.594,66.999 68.851,66.999 69.166 C 66.999 69.480,66.640 69.851,66.201 69.990 C 65.763 70.129,65.404 70.500,65.404 70.815 C 65.404 71.129,65.135 71.386,64.806 71.386 C 64.473 71.386,64.207 71.740,64.207 72.183 C 64.207 72.715,63.942 72.981,63.410 72.981 C 62.946 72.981,62.612 73.247,62.612 73.617 C 62.612 73.966,62.253 74.346,61.815 74.461 C 61.376 74.575,61.017 74.918,61.017 75.221 C 61.017 75.524,60.748 75.773,60.419 75.773 C 60.090 75.773,59.821 76.036,59.821 76.357 C 59.821 76.678,59.462 77.133,59.023 77.368 C 58.504 77.646,58.225 78.203,58.225 78.963 C 58.225 79.723,57.947 80.281,57.428 80.558 C 56.834 80.876,56.630 81.393,56.630 82.579 C 56.630 83.630,56.426 84.251,56.030 84.403 C 55.699 84.530,55.319 85.321,55.185 86.160 C 55.051 87.000,54.693 87.783,54.390 87.899 C 54.087 88.015,53.838 88.634,53.838 89.273 C 53.838 90.100,53.608 90.496,53.041 90.644 C 52.602 90.759,52.243 91.139,52.243 91.488 C 52.243 91.838,51.974 92.124,51.645 92.124 C 51.316 92.124,51.047 92.319,51.047 92.557 C 51.047 92.795,50.060 93.970,48.853 95.166 C 47.647 96.363,46.660 97.514,46.660 97.724 C 46.660 97.934,46.508 98.106,46.323 98.106 C 46.138 98.106,44.967 99.093,43.722 100.299 C 42.476 101.505,41.282 102.493,41.068 102.493 C 40.853 102.493,40.678 102.750,40.678 103.064 C 40.678 103.378,40.319 103.749,39.880 103.888 C 39.442 104.028,39.083 104.399,39.083 104.713 C 39.083 105.027,38.826 105.284,38.511 105.284 C 38.197 105.284,37.826 105.643,37.687 106.082 C 37.548 106.520,37.177 106.879,36.862 106.879 C 36.548 106.879,36.291 107.136,36.291 107.451 C 36.291 107.765,35.932 108.136,35.494 108.275 C 35.055 108.414,34.696 108.785,34.696 109.100 C 34.696 109.414,34.410 109.671,34.060 109.671 C 33.711 109.671,33.331 110.030,33.216 110.469 C 33.102 110.907,32.857 111.266,32.674 111.266 C 32.214 111.266,30.309 113.208,30.309 113.677 C 30.309 113.887,30.023 114.058,29.674 114.058 C 29.324 114.058,28.944 114.417,28.829 114.855 C 28.715 115.294,28.385 115.653,28.096 115.653 C 27.807 115.653,27.463 115.995,27.330 116.414 C 27.197 116.832,26.826 117.275,26.505 117.398 C 26.171 117.526,25.922 118.138,25.922 118.831 C 25.922 119.774,25.747 120.040,25.125 120.040 C 24.593 120.040,24.327 120.306,24.327 120.837 C 24.327 121.276,24.077 121.635,23.771 121.635 C 23.162 121.635,22.732 122.473,22.732 123.662 C 22.732 124.082,22.463 124.427,22.134 124.427 C 21.772 124.427,21.535 124.796,21.535 125.362 C 21.535 125.876,21.176 126.622,20.738 127.019 C 20.254 127.457,19.940 128.247,19.940 129.028 C 19.940 129.980,19.732 130.370,19.143 130.524 C 18.537 130.683,18.345 131.068,18.345 132.123 C 18.345 132.935,18.117 133.601,17.797 133.724 C 17.475 133.848,17.133 134.854,16.970 136.160 C 16.817 137.384,16.436 138.642,16.123 138.955 C 15.781 139.297,15.553 140.323,15.553 141.527 C 15.553 143.015,15.375 143.629,14.860 143.918 C 14.308 144.227,14.137 144.985,14.022 147.627 C 13.922 149.935,13.684 151.165,13.242 151.662 C 12.792 152.169,12.557 153.446,12.436 156.049 C 12.318 158.602,12.098 159.818,11.716 160.040 C 11.305 160.279,11.167 161.406,11.167 164.526 C 11.167 167.823,11.050 168.694,10.611 168.694 C 9.754 168.694,9.571 169.625,9.571 173.979 C 9.571 177.252,9.441 178.147,8.873 178.774 C 7.840 179.916,7.840 188.055,8.873 188.810 C 9.257 189.091,9.571 189.600,9.571 189.942 C 9.571 190.996,10.029 191.825,10.611 191.825 C 10.980 191.825,11.167 192.293,11.167 193.220 C 11.167 193.988,11.355 194.616,11.586 194.616 C 11.816 194.616,12.268 195.199,12.589 195.912 C 12.910 196.625,13.339 197.478,13.542 197.807 C 13.745 198.136,14.014 198.898,14.141 199.501 C 14.268 200.105,14.638 200.598,14.963 200.598 C 15.373 200.598,15.553 201.029,15.553 202.007 C 15.553 202.893,15.776 203.500,16.154 203.645 C 16.484 203.772,16.868 204.586,17.007 205.454 C 17.145 206.322,17.503 207.277,17.802 207.576 C 18.101 207.874,18.345 208.476,18.345 208.912 C 18.345 210.127,18.770 210.967,19.385 210.967 C 19.791 210.967,19.940 211.545,19.940 213.114 C 19.940 214.926,20.065 215.293,20.738 215.469 C 21.414 215.646,21.535 216.013,21.535 217.880 C 21.535 219.214,21.751 220.298,22.082 220.629 C 22.395 220.942,22.703 222.340,22.802 223.896 C 22.926 225.847,23.166 226.757,23.651 227.111 C 25.631 228.559,24.165 231.521,21.336 231.791 L 20.140 231.904 20.032 241.212 C 19.928 250.258,19.948 250.525,20.730 250.730 C 21.385 250.901,21.535 251.270,21.535 252.701 C 21.535 253.898,21.727 254.535,22.134 254.691 C 22.463 254.818,22.732 255.336,22.732 255.843 C 22.732 257.179,23.135 258.026,23.771 258.026 C 24.148 258.026,24.327 258.510,24.327 259.525 C 24.327 260.593,24.557 261.168,25.125 261.523 C 25.700 261.882,25.922 262.453,25.922 263.570 C 25.922 264.579,26.131 265.199,26.520 265.349 C 26.849 265.475,27.119 265.928,27.119 266.356 C 27.119 267.556,27.546 268.395,28.158 268.395 C 28.525 268.395,28.714 268.860,28.714 269.764 C 28.714 270.782,28.918 271.197,29.511 271.386 C 30.128 271.581,30.309 271.989,30.309 273.179 C 30.309 274.026,30.556 274.966,30.859 275.268 C 31.161 275.571,31.537 276.403,31.694 277.118 C 31.851 277.834,32.232 278.516,32.540 278.634 C 32.849 278.752,33.101 279.385,33.101 280.040 C 33.101 280.896,33.325 281.290,33.898 281.440 C 34.499 281.597,34.696 281.984,34.696 283.010 C 34.696 283.801,34.927 284.461,35.247 284.583 C 35.550 284.700,35.909 285.489,36.045 286.337 C 36.181 287.186,36.561 288.149,36.890 288.478 C 37.218 288.807,37.488 289.447,37.488 289.902 C 37.488 290.356,37.846 291.087,38.285 291.525 C 38.724 291.964,39.083 292.842,39.083 293.477 C 39.083 294.111,39.339 294.729,39.653 294.849 C 39.969 294.970,40.347 295.894,40.501 296.918 C 40.653 297.935,41.025 298.862,41.326 298.978 C 41.635 299.096,41.874 299.752,41.874 300.479 C 41.874 301.264,42.187 302.054,42.672 302.493 C 43.111 302.890,43.470 303.710,43.470 304.316 C 43.470 305.824,43.846 306.680,44.509 306.680 C 44.911 306.680,45.065 307.237,45.065 308.686 C 45.065 310.102,45.241 310.761,45.663 310.923 C 46.032 311.064,46.261 311.670,46.261 312.505 C 46.261 313.327,46.575 314.172,47.059 314.656 C 47.498 315.095,47.856 315.985,47.856 316.636 C 47.856 317.893,48.742 318.644,50.223 318.644 C 50.676 318.644,51.047 318.815,51.047 319.024 C 51.047 319.233,51.675 319.702,52.443 320.067 C 53.451 320.545,53.838 320.988,53.838 321.661 C 53.838 322.173,54.085 322.736,54.387 322.911 C 54.724 323.108,55.002 324.184,55.109 325.708 C 55.219 327.270,55.532 328.461,55.957 328.930 C 56.386 329.405,56.630 330.348,56.630 331.537 C 56.630 332.868,56.858 333.627,57.428 334.197 C 57.915 334.685,58.225 335.527,58.225 336.362 C 58.225 337.114,58.473 337.977,58.775 338.279 C 59.077 338.582,59.453 339.414,59.610 340.129 C 59.767 340.845,60.148 341.527,60.456 341.645 C 60.765 341.763,61.017 342.198,61.017 342.612 C 61.017 343.025,61.376 343.587,61.815 343.861 C 62.253 344.135,62.612 344.753,62.612 345.234 C 62.612 345.758,62.932 346.209,63.410 346.361 C 63.848 346.500,64.207 346.772,64.207 346.965 C 64.207 347.494,66.028 349.352,66.546 349.352 C 66.795 349.352,66.999 349.638,66.999 349.987 C 66.999 350.337,67.358 350.717,67.797 350.832 C 68.235 350.946,68.596 351.244,68.597 351.492 C 68.601 351.995,71.448 353.739,72.266 353.739 C 72.554 353.739,73.013 354.098,73.287 354.536 C 73.655 355.125,74.217 355.334,75.433 355.334 C 76.542 355.334,77.247 355.562,77.590 356.032 C 78.042 356.651,79.043 356.744,86.405 356.853 C 93.128 356.953,94.772 357.086,95.032 357.551 C 95.209 357.867,95.930 358.126,96.634 358.126 C 97.482 358.126,98.082 358.395,98.412 358.923 C 98.694 359.374,99.342 359.721,99.904 359.721 C 100.547 359.721,100.897 359.945,100.897 360.356 C 100.897 360.706,101.256 361.086,101.695 361.200 C 102.134 361.315,102.493 361.657,102.493 361.961 C 102.493 362.264,102.818 362.512,103.215 362.512 C 103.612 362.512,104.323 362.871,104.793 363.310 C 105.264 363.749,105.837 364.108,106.065 364.108 C 106.294 364.108,106.839 364.467,107.278 364.905 C 107.810 365.437,108.608 365.703,109.671 365.703 C 110.759 365.703,111.266 365.877,111.266 366.251 C 111.266 366.864,112.954 367.298,115.333 367.298 C 116.200 367.298,117.175 367.567,117.505 367.896 C 117.954 368.346,119.065 368.495,121.974 368.495 C 125.351 368.495,125.932 368.596,126.528 369.292 C 126.903 369.731,127.552 370.090,127.969 370.090 C 128.387 370.090,128.825 370.342,128.943 370.650 C 129.062 370.959,129.697 371.329,130.354 371.474 C 131.012 371.618,131.764 371.994,132.025 372.309 C 132.287 372.624,132.996 372.881,133.602 372.881 C 134.367 372.881,134.766 373.124,134.911 373.679 C 135.052 374.218,135.455 374.477,136.154 374.477 C 136.723 374.477,137.547 374.835,137.986 375.274 C 138.425 375.713,139.148 376.072,139.594 376.072 C 140.039 376.072,140.507 376.341,140.633 376.670 C 140.773 377.033,141.376 377.268,142.170 377.268 C 143.141 377.268,143.530 377.473,143.685 378.066 C 143.837 378.647,144.229 378.863,145.127 378.863 C 145.990 378.863,146.361 379.054,146.361 379.499 C 146.361 379.848,146.707 380.225,147.131 380.336 C 147.554 380.447,147.997 380.789,148.115 381.096 C 148.233 381.404,148.853 381.655,149.492 381.655 C 150.319 381.655,150.715 381.885,150.863 382.453 C 150.997 382.965,151.407 383.250,152.010 383.250 C 152.526 383.250,153.173 383.609,153.447 384.048 C 153.721 384.487,154.283 384.845,154.697 384.845 C 155.110 384.845,155.551 385.115,155.678 385.444 C 155.834 385.852,156.473 386.042,157.690 386.042 C 159.463 386.042,159.474 386.051,159.597 387.537 L 159.721 389.033 167.389 389.141 C 174.631 389.243,175.102 389.205,175.864 388.443 C 177.118 387.189,207.699 387.181,208.482 388.435 C 208.898 389.102,209.412 389.232,211.624 389.232 C 213.683 389.232,214.382 389.387,214.779 389.930 C 215.237 390.556,216.203 390.633,224.149 390.673 C 231.910 390.712,233.053 390.799,233.373 391.371 C 233.574 391.730,234.225 392.024,234.819 392.024 C 235.468 392.024,236.099 392.343,236.398 392.822 C 236.672 393.260,237.303 393.619,237.801 393.619 C 238.299 393.619,239.013 393.978,239.389 394.417 C 239.765 394.855,240.522 395.214,241.073 395.214 C 241.706 395.214,242.074 395.439,242.074 395.825 C 242.074 396.346,242.790 396.419,246.959 396.323 L 251.844 396.211 251.965 394.118 C 252.050 392.648,252.252 392.024,252.643 392.024 C 252.950 392.024,253.344 391.782,253.520 391.486 C 253.695 391.190,254.723 390.830,255.803 390.686 C 256.884 390.542,258.051 390.179,258.396 389.880 C 259.474 388.943,265.520 388.742,265.803 389.633 C 265.929 390.030,266.295 390.456,266.615 390.579 C 266.936 390.702,267.198 391.077,267.198 391.413 C 267.198 391.749,267.468 392.024,267.797 392.024 C 268.126 392.024,268.395 392.299,268.395 392.635 C 268.395 392.971,268.695 393.361,269.062 393.501 C 269.429 393.642,270.057 394.085,270.458 394.486 C 270.999 395.027,271.793 395.214,273.547 395.214 C 277.185 395.214,277.168 395.232,277.168 391.404 C 277.168 388.039,278.040 386.042,279.507 386.042 C 279.756 386.042,279.960 385.773,279.960 385.444 C 279.960 384.949,280.708 384.845,284.297 384.845 L 288.634 384.845 288.883 383.599 C 289.020 382.914,289.133 381.228,289.133 379.853 C 289.133 377.999,289.287 377.294,289.731 377.124 C 290.060 376.998,290.329 376.620,290.329 376.284 C 290.329 375.948,290.499 375.673,290.707 375.673 C 291.119 375.673,293.121 373.925,293.121 373.565 C 293.121 373.443,293.838 372.618,294.716 371.732 C 295.593 370.846,296.311 369.755,296.311 369.308 C 296.311 368.860,296.515 368.495,296.764 368.495 C 297.296 368.495,299.103 366.630,299.103 366.081 C 299.103 365.873,299.301 365.703,299.544 365.703 C 299.961 365.703,301.744 364.412,303.124 363.109 C 303.472 362.781,303.956 362.512,304.201 362.512 C 304.446 362.512,304.829 362.198,305.053 361.815 C 305.440 361.150,305.460 361.150,305.471 361.815 C 305.478 362.198,305.753 362.512,306.082 362.512 C 306.411 362.512,306.680 362.798,306.680 363.148 C 306.680 363.498,307.022 363.873,307.441 363.982 C 307.859 364.092,308.291 364.524,308.400 364.942 C 308.604 365.722,311.685 366.053,313.228 365.461 C 314.296 365.051,314.146 356.314,313.061 355.733 C 312.622 355.498,312.263 354.966,312.263 354.551 C 312.263 354.136,311.988 353.520,311.651 353.183 C 310.241 351.774,312.166 350.947,316.855 350.947 L 321.049 350.947 321.839 349.651 C 322.274 348.938,322.630 347.951,322.631 347.458 C 322.632 346.585,322.746 346.560,326.744 346.560 C 330.305 346.560,330.971 346.453,331.713 345.763 C 332.184 345.324,332.952 344.965,333.420 344.965 C 333.937 344.965,334.354 344.651,334.481 344.167 C 334.595 343.729,334.918 343.370,335.197 343.370 C 335.476 343.370,335.818 342.759,335.958 342.013 C 336.099 341.266,336.477 340.554,336.800 340.430 C 337.241 340.261,337.388 339.502,337.388 337.400 C 337.388 334.862,337.463 334.596,338.185 334.596 C 338.624 334.596,338.983 334.346,338.983 334.041 C 338.983 333.735,339.252 333.382,339.581 333.256 C 339.910 333.129,340.179 332.772,340.179 332.462 C 340.179 332.152,340.538 331.804,340.977 331.689 C 341.416 331.574,341.775 331.215,341.775 330.891 C 341.775 330.567,342.134 330.209,342.572 330.094 C 343.011 329.979,343.370 329.599,343.370 329.250 C 343.370 328.900,343.603 328.614,343.888 328.614 C 344.173 328.614,344.633 327.986,344.911 327.218 C 345.188 326.451,345.583 325.823,345.789 325.823 C 345.994 325.823,346.162 325.537,346.162 325.187 C 346.162 324.837,346.520 324.458,346.959 324.343 C 347.398 324.228,347.757 323.970,347.757 323.769 C 347.757 323.568,348.385 322.775,349.153 322.007 C 349.993 321.167,350.548 320.220,350.548 319.628 C 350.548 319.010,350.776 318.644,351.159 318.644 C 351.495 318.644,351.885 318.344,352.026 317.977 C 352.167 317.610,352.610 316.981,353.010 316.581 C 353.411 316.180,353.739 315.513,353.739 315.098 C 353.739 314.682,354.008 314.239,354.337 314.113 C 354.666 313.987,354.935 313.652,354.935 313.369 C 354.935 313.086,355.294 312.630,355.733 312.356 C 356.179 312.077,356.530 311.426,356.530 310.878 C 356.530 310.307,356.863 309.721,357.328 309.472 C 357.850 309.192,358.126 308.637,358.126 307.862 C 358.126 307.077,358.327 306.680,358.724 306.680 C 359.053 306.680,359.322 306.439,359.322 306.144 C 359.322 305.849,359.681 305.282,360.120 304.885 C 360.558 304.488,360.917 303.743,360.917 303.228 C 360.917 302.695,361.156 302.293,361.473 302.293 C 362.075 302.293,362.512 301.458,362.512 300.309 C 362.512 299.912,362.772 299.487,363.089 299.366 C 363.406 299.244,363.784 298.507,363.931 297.728 C 364.084 296.912,364.432 296.311,364.750 296.311 C 365.114 296.311,365.304 295.847,365.304 294.962 C 365.304 293.948,365.502 293.561,366.102 293.404 C 366.685 293.251,366.899 292.860,366.899 291.949 C 366.899 291.219,367.143 290.609,367.487 290.477 C 367.810 290.353,368.186 289.654,368.323 288.922 C 368.461 288.191,368.824 287.496,369.132 287.378 C 369.441 287.259,369.691 286.624,369.691 285.955 C 369.691 285.278,370.042 284.395,370.489 283.948 C 370.932 283.505,371.286 282.619,371.286 281.954 C 371.286 281.289,371.641 280.403,372.084 279.960 C 372.522 279.521,372.881 278.733,372.881 278.208 C 372.881 277.683,373.151 277.151,373.480 277.024 C 373.959 276.840,374.078 275.960,374.078 272.595 C 374.078 269.271,374.194 268.395,374.633 268.395 C 375.405 268.395,375.673 267.498,375.673 264.917 C 375.673 263.266,375.851 262.570,376.371 262.190 C 376.947 261.770,377.092 260.910,377.203 257.281 C 377.300 254.109,377.495 252.751,377.901 252.414 C 378.278 252.101,378.465 251.110,378.465 249.422 C 378.465 246.967,379.046 244.865,379.725 244.865 C 379.909 244.865,380.060 243.225,380.060 241.220 C 380.060 238.210,380.181 237.487,380.757 237.066 C 381.341 236.639,381.477 235.756,381.594 231.638 C 381.703 227.771,381.874 226.562,382.392 225.980 C 382.977 225.324,383.067 223.403,383.194 208.944 C 383.310 195.637,383.438 192.564,383.892 192.188 C 384.313 191.838,384.447 190.493,384.447 186.591 C 384.447 182.467,384.556 181.456,385.002 181.456 C 385.767 181.456,386.042 180.562,386.042 178.076 C 386.042 176.607,386.217 175.891,386.612 175.739 C 386.941 175.613,387.288 174.708,387.432 173.602 C 387.570 172.548,387.941 171.209,388.258 170.626 C 388.574 170.044,388.833 168.931,388.833 168.154 C 388.833 167.267,389.074 166.605,389.478 166.379 C 390.394 165.866,390.474 161.792,389.586 160.902 C 388.632 159.946,385.940 159.681,385.279 160.477 C 383.867 162.178,382.851 161.298,382.851 158.374 C 382.851 156.422,382.679 155.488,382.253 155.135 C 381.759 154.725,381.655 153.293,381.655 146.910 C 381.655 139.714,381.600 139.128,380.857 138.385 C 380.147 137.675,380.060 137.056,380.060 132.733 C 380.060 128.766,379.939 127.745,379.396 127.146 C 378.873 126.568,378.693 125.313,378.545 121.199 C 378.404 117.297,378.219 115.933,377.812 115.776 C 377.513 115.662,377.268 115.342,377.268 115.066 C 377.268 114.790,376.909 114.108,376.471 113.550 C 376.032 112.993,375.673 112.250,375.673 111.901 C 375.673 111.532,375.339 111.266,374.875 111.266 C 374.230 111.266,374.078 111.000,374.078 109.870 C 374.078 108.896,373.897 108.475,373.480 108.475 C 373.151 108.475,372.881 108.233,372.881 107.938 C 372.881 107.643,372.522 107.077,372.084 106.680 C 371.645 106.283,371.286 105.549,371.286 105.050 C 371.286 104.492,370.979 104.044,370.489 103.888 C 369.927 103.710,369.691 103.285,369.691 102.453 C 369.691 101.784,369.438 101.174,369.108 101.047 C 368.787 100.924,368.416 100.481,368.283 100.063 C 368.151 99.644,367.785 99.302,367.471 99.302 C 367.098 99.302,366.899 98.873,366.899 98.068 C 366.899 97.170,366.682 96.778,366.102 96.626 C 365.663 96.511,365.304 96.169,365.304 95.866 C 365.304 95.562,364.945 94.955,364.506 94.516 C 364.068 94.078,363.709 93.360,363.709 92.921 C 363.709 92.478,363.443 92.124,363.111 92.124 C 362.782 92.124,362.512 91.793,362.512 91.388 C 362.512 90.983,362.154 90.327,361.715 89.930 C 361.276 89.533,360.917 88.877,360.917 88.473 C 360.917 88.068,360.667 87.737,360.362 87.737 C 359.760 87.737,359.322 86.901,359.322 85.753 C 359.322 85.356,359.053 84.927,358.724 84.801 C 358.395 84.675,358.126 84.297,358.126 83.961 C 358.126 83.616,357.778 83.350,357.328 83.350 C 356.685 83.350,356.530 83.084,356.530 81.981 C 356.530 80.962,356.326 80.547,355.733 80.359 C 355.294 80.220,354.935 79.771,354.935 79.363 C 354.935 78.389,353.281 75.811,352.642 75.790 C 352.354 75.780,352.144 75.251,352.144 74.539 C 352.144 73.641,351.927 73.248,351.346 73.097 C 350.907 72.982,350.548 72.630,350.548 72.316 C 350.548 71.420,348.810 68.601,348.255 68.597 C 347.981 68.596,347.757 68.250,347.757 67.829 C 347.757 66.641,347.327 65.803,346.717 65.803 C 346.412 65.803,346.162 65.444,346.162 65.005 C 346.162 64.566,345.912 64.207,345.608 64.207 C 345.291 64.207,344.942 63.611,344.792 62.812 C 344.648 62.044,344.361 61.416,344.155 61.416 C 343.948 61.416,343.517 60.788,343.196 60.020 C 342.875 59.252,342.424 58.624,342.194 58.624 C 341.963 58.624,341.775 58.265,341.775 57.827 C 341.775 57.388,341.586 57.029,341.356 57.029 C 341.125 57.029,340.686 56.430,340.381 55.699 C 340.075 54.968,339.277 53.782,338.606 53.065 C 337.936 52.347,337.388 51.621,337.388 51.450 C 337.388 51.279,337.029 51.046,336.590 50.931 C 336.152 50.817,335.793 50.437,335.793 50.087 C 335.793 49.738,335.523 49.452,335.194 49.452 C 334.865 49.452,334.596 49.166,334.596 48.816 C 334.596 48.467,334.237 48.087,333.799 47.972 C 333.360 47.857,333.001 47.527,333.001 47.239 C 333.001 46.950,332.642 46.600,332.203 46.461 C 331.765 46.321,331.406 45.950,331.406 45.636 C 331.406 45.322,331.137 45.065,330.808 45.065 C 330.479 45.065,330.209 44.779,330.209 44.429 C 330.209 44.080,329.850 43.700,329.412 43.585 C 328.973 43.470,328.614 43.140,328.614 42.852 C 328.614 42.563,328.255 42.213,327.817 42.074 C 327.378 41.935,327.019 41.564,327.019 41.249 C 327.019 40.935,326.681 40.678,326.268 40.678 C 325.852 40.678,325.424 40.322,325.308 39.880 C 325.156 39.300,324.764 39.083,323.866 39.083 C 323.003 39.083,322.632 38.892,322.632 38.447 C 322.632 38.098,322.273 37.718,321.834 37.603 C 321.396 37.488,321.037 37.166,321.037 36.887 C 321.037 36.608,320.409 36.262,319.641 36.118 C 318.806 35.961,318.245 35.623,318.245 35.276 C 318.245 34.957,317.907 34.696,317.494 34.696 C 317.078 34.696,316.650 34.340,316.534 33.898 C 316.383 33.318,315.991 33.101,315.092 33.101 C 314.261 33.101,313.858 32.905,313.858 32.502 C 313.858 32.173,313.617 31.904,313.322 31.904 C 313.027 31.904,312.461 31.545,312.064 31.107 C 311.667 30.668,311.011 30.309,310.606 30.309 C 310.201 30.309,309.511 29.950,309.073 29.511 C 308.634 29.073,307.827 28.714,307.278 28.714 C 306.672 28.714,306.281 28.487,306.281 28.134 C 306.281 27.789,305.727 27.450,304.913 27.297 C 304.160 27.156,303.448 26.789,303.330 26.481 C 303.195 26.130,302.520 25.922,301.511 25.922 C 300.339 25.922,299.773 25.708,299.409 25.125 C 299.079 24.596,298.479 24.327,297.631 24.327 C 296.881 24.327,296.205 24.067,296.000 23.700 C 295.802 23.347,294.879 22.973,293.886 22.844 C 292.917 22.718,291.980 22.372,291.805 22.075 C 291.629 21.778,290.906 21.535,290.198 21.535 C 289.405 21.535,288.649 21.230,288.228 20.738 C 287.699 20.119,287.052 19.940,285.348 19.940 C 283.682 19.940,282.958 19.747,282.353 19.143 C 281.696 18.485,281.024 18.345,278.536 18.345 C 276.384 18.345,275.344 18.173,274.918 17.747 C 273.888 16.716,249.031 16.754,248.211 17.787 C 247.968 18.094,247.403 18.345,246.956 18.345 C 246.024 18.345,243.669 20.266,243.669 21.026 C 243.669 22.007,225.921 21.734,224.925 20.738 C 224.372 20.185,223.596 19.940,222.395 19.940 C 221.168 19.940,220.451 19.707,219.940 19.143 C 219.543 18.704,218.999 18.345,218.731 18.345 C 218.463 18.345,218.020 18.076,217.747 17.747 C 217.474 17.418,216.824 17.149,216.302 17.149 C 215.473 17.149,215.353 16.960,215.348 15.653 C 215.338 13.267,214.150 12.309,211.143 12.263 C 210.080 12.247,209.329 12.030,209.204 11.702 C 209.091 11.407,208.475 11.167,207.836 11.167 C 207.009 11.167,206.613 10.936,206.465 10.369 C 206.350 9.930,205.970 9.571,205.621 9.571 C 205.271 9.571,204.985 9.314,204.985 9.000 C 204.985 8.686,204.626 8.315,204.187 8.175 C 203.749 8.036,203.390 7.665,203.390 7.351 C 203.390 6.964,202.940 6.780,201.994 6.780 C 201.067 6.780,200.598 6.593,200.598 6.224 C 200.598 5.282,194.599 4.691,192.722 5.449 M198.823 10.152 C 199.587 10.471,201.481 11.725,203.031 12.937 C 204.580 14.150,206.596 15.345,207.510 15.593 C 208.425 15.841,209.402 16.109,209.682 16.189 C 209.962 16.269,210.520 17.102,210.922 18.041 C 211.537 19.476,211.997 19.898,213.803 20.687 C 214.985 21.204,216.609 21.954,217.413 22.354 C 221.927 24.603,230.347 26.031,233.833 25.140 C 235.687 24.666,240.006 24.755,243.927 25.349 C 245.490 25.586,245.683 25.499,247.415 23.791 C 249.538 21.699,249.610 21.683,258.624 21.343 C 265.466 21.084,275.626 21.694,278.564 22.539 C 279.661 22.854,282.263 23.591,284.347 24.175 C 286.431 24.760,288.674 25.479,289.332 25.775 C 289.990 26.070,292.666 27.134,295.278 28.139 C 299.509 29.767,305.493 32.615,308.873 34.608 C 309.531 34.997,310.967 35.838,312.064 36.477 C 318.407 40.178,324.127 44.640,329.287 49.913 C 334.780 55.525,337.029 58.548,343.192 68.594 C 345.975 73.131,346.656 74.222,351.536 81.954 C 353.612 85.244,356.153 89.372,357.182 91.127 C 358.210 92.881,359.965 95.683,361.082 97.353 C 364.354 102.248,369.781 110.952,372.643 115.896 C 374.126 118.456,375.274 123.395,375.274 127.210 C 375.274 128.245,375.630 130.779,376.066 132.841 C 376.501 134.903,376.860 137.493,376.863 138.596 C 376.867 139.699,377.123 142.750,377.432 145.376 C 377.742 148.001,378.112 153.549,378.255 157.704 C 378.613 168.095,378.931 169.093,381.882 169.093 C 382.729 169.093,383.362 169.319,383.496 169.668 C 383.708 170.221,382.545 175.391,381.741 177.468 C 381.529 178.016,381.230 179.452,381.078 180.658 C 380.925 181.864,380.542 184.287,380.226 186.042 C 379.816 188.324,379.640 192.753,379.608 201.595 C 379.560 215.200,379.298 219.785,378.058 228.714 C 376.440 240.370,376.133 242.327,375.151 247.258 C 374.605 250.000,373.876 254.269,373.531 256.746 C 372.997 260.577,372.166 264.640,370.495 271.585 C 370.212 272.762,368.134 278.167,366.891 280.957 C 366.696 281.396,366.060 282.921,365.479 284.347 C 360.212 297.257,348.935 315.521,339.132 327.019 C 334.769 332.136,334.059 333.287,333.225 336.585 C 332.098 341.038,331.420 341.587,326.496 342.034 C 322.651 342.382,320.856 343.067,318.786 344.976 C 317.470 346.189,316.829 346.520,316.137 346.347 C 313.844 345.771,306.328 348.655,305.525 350.418 C 304.904 351.781,304.948 351.998,306.222 353.866 C 307.511 355.756,307.456 356.530,306.033 356.530 C 303.672 356.530,299.560 359.757,292.773 366.934 C 285.664 374.450,285.683 374.420,285.407 378.387 C 285.219 381.094,285.130 381.163,281.497 381.398 C 276.335 381.733,274.310 383.346,273.750 387.567 C 273.364 390.477,272.979 390.490,270.306 387.681 C 266.971 384.176,265.608 383.828,260.219 385.098 C 251.784 387.087,249.574 388.089,248.627 390.354 C 247.470 393.124,246.821 393.085,240.199 389.846 C 233.253 386.448,231.047 385.888,225.922 386.224 C 219.577 386.641,219.347 386.629,215.155 385.670 C 205.554 383.473,179.192 383.129,170.364 385.085 C 165.875 386.080,163.966 385.878,163.323 384.339 C 162.528 382.438,161.506 381.692,159.293 381.399 C 157.801 381.202,155.935 380.304,151.545 377.671 C 146.692 374.759,141.735 372.098,128.249 365.161 C 127.086 364.563,125.404 364.269,121.669 364.010 C 114.440 363.510,110.205 361.984,104.904 357.968 C 99.879 354.160,97.064 353.249,89.731 353.053 C 72.095 352.583,64.767 346.006,59.596 326.008 C 57.777 318.974,56.896 317.436,53.432 315.249 C 51.957 314.318,49.850 310.934,49.850 309.494 C 49.850 308.385,40.627 285.548,37.681 279.362 C 36.323 276.510,34.716 272.921,34.111 271.386 C 33.506 269.850,32.886 268.415,32.734 268.195 C 32.582 267.976,31.766 266.181,30.921 264.207 C 30.076 262.233,28.866 259.464,28.231 258.053 C 27.194 255.748,25.709 251.931,24.342 248.056 C 23.492 245.644,23.166 243.568,23.153 240.479 C 23.137 236.327,23.348 235.782,25.339 234.846 C 28.438 233.390,28.697 229.489,26.302 220.339 C 25.613 217.707,24.911 215.015,24.742 214.357 C 23.431 209.259,20.370 201.805,15.893 192.813 L 11.917 184.828 12.511 181.447 C 13.601 175.241,14.005 172.510,14.371 168.893 C 14.571 166.919,15.009 164.423,15.344 163.346 C 15.678 162.270,15.952 160.732,15.952 159.929 C 15.952 159.127,16.209 157.585,16.522 156.503 C 16.836 155.421,17.220 153.460,17.376 152.144 C 17.531 150.828,17.903 149.055,18.201 148.205 C 18.500 147.355,18.744 146.237,18.744 145.721 C 18.744 143.530,22.638 132.864,25.208 128.016 C 28.114 122.535,32.638 116.901,37.886 112.230 C 42.589 108.044,52.486 98.259,54.667 95.637 C 56.960 92.883,57.924 91.087,60.205 85.327 C 62.378 79.840,61.996 80.341,70.961 71.244 C 77.522 64.586,81.928 60.412,91.924 51.385 C 92.582 50.791,93.928 49.574,94.915 48.681 C 98.434 45.496,99.201 45.307,107.329 45.621 C 115.938 45.954,116.694 45.740,118.318 42.517 C 121.461 36.278,126.091 32.088,131.915 30.209 C 134.075 29.512,135.398 29.362,138.720 29.438 C 144.072 29.559,145.138 29.040,150.859 23.529 C 156.756 17.848,157.507 17.602,157.521 21.347 C 157.535 24.961,159.692 25.663,163.429 23.270 C 166.328 21.413,175.753 16.782,179.094 15.572 C 180.503 15.062,182.373 14.325,183.250 13.934 C 191.075 10.446,196.420 9.148,198.823 10.152 " stroke="none" fill="#fafa07" fill-rule="evenodd"></path><path id="path4" d="M213.481 21.609 C 213.251 21.898,212.704 22.941,212.266 23.928 C 210.042 28.939,208.559 29.391,193.420 29.662 C 180.858 29.887,176.611 30.290,172.383 31.654 C 171.341 31.990,169.374 32.460,168.013 32.697 C 166.651 32.935,164.587 33.544,163.427 34.051 C 162.266 34.557,160.433 35.189,159.354 35.455 C 158.275 35.720,156.660 36.356,155.765 36.868 C 154.870 37.379,153.420 38.019,152.542 38.288 C 150.866 38.804,138.123 45.090,136.398 46.253 C 135.846 46.625,134.289 47.677,132.938 48.590 C 131.587 49.502,130.353 50.249,130.196 50.249 C 130.039 50.249,128.836 50.967,127.522 51.844 C 126.208 52.722,124.970 53.440,124.770 53.440 C 124.571 53.440,123.494 54.068,122.378 54.835 C 121.262 55.603,120.183 56.231,119.979 56.231 C 119.776 56.231,118.677 56.859,117.537 57.627 C 116.397 58.395,115.300 59.023,115.099 59.023 C 114.084 59.023,105.046 65.359,102.448 67.893 C 100.815 69.485,99.036 71.135,98.494 71.559 C 94.343 74.807,79.476 89.350,73.994 95.527 C 72.248 97.493,70.543 99.396,70.205 99.755 C 68.659 101.397,67.307 103.390,59.143 116.052 C 56.852 119.604,52.072 130.752,51.628 133.576 C 51.475 134.550,50.823 136.614,50.179 138.162 C 49.318 140.232,48.907 142.078,48.625 145.136 C 48.414 147.423,47.881 151.281,47.440 153.710 C 46.496 158.903,46.032 162.861,45.471 170.489 C 45.246 173.559,44.702 178.584,44.263 181.655 C 43.824 184.726,43.280 189.392,43.055 192.024 C 42.717 195.964,42.440 197.232,41.488 199.202 C 37.862 206.698,37.497 208.798,38.663 215.485 C 39.090 217.935,39.635 222.094,39.875 224.726 C 40.114 227.358,40.478 230.229,40.684 231.107 C 41.232 233.444,41.174 236.490,40.578 236.648 C 38.018 237.328,37.668 237.564,37.227 238.905 C 36.319 241.669,37.643 244.068,40.077 244.068 C 42.719 244.068,45.109 246.486,45.741 249.800 C 45.872 250.486,46.484 252.058,47.100 253.295 C 47.717 254.531,48.439 256.415,48.706 257.482 C 48.973 258.549,49.699 260.249,50.318 261.260 C 50.938 262.272,51.446 263.247,51.446 263.429 C 51.446 264.912,55.495 272.162,57.783 274.776 C 66.221 284.412,88.599 307.024,91.724 309.073 C 91.892 309.182,95.236 312.335,99.155 316.079 C 103.074 319.822,107.268 323.764,108.475 324.839 C 109.681 325.914,112.472 328.540,114.678 330.675 C 120.030 335.856,121.936 336.372,126.959 333.995 C 130.019 332.547,130.865 333.612,129.158 336.764 C 127.409 339.992,127.777 340.497,133.998 343.407 C 134.985 343.869,136.985 344.857,138.442 345.603 C 139.899 346.349,141.443 346.959,141.874 346.959 C 142.305 346.959,144.702 347.571,147.201 348.320 C 150.896 349.426,152.676 349.725,156.730 349.921 C 162.420 350.196,170.861 351.152,174.676 351.955 C 176.102 352.255,178.704 352.612,180.459 352.748 C 182.213 352.885,186.162 353.591,189.232 354.318 C 201.488 357.218,205.816 357.745,209.200 356.749 C 210.281 356.431,213.434 355.893,216.206 355.554 C 218.978 355.215,223.016 354.580,225.180 354.143 C 227.343 353.705,229.242 353.346,229.399 353.344 C 230.546 353.329,235.687 347.981,236.285 346.181 C 237.545 342.387,239.896 341.081,242.089 342.955 C 244.195 344.755,246.678 344.051,248.474 341.145 C 249.170 340.020,249.558 339.781,250.689 339.781 C 251.505 339.781,252.708 339.353,253.657 338.724 C 256.972 336.531,259.147 336.905,261.711 340.110 C 262.592 341.211,263.460 341.203,265.172 340.078 C 268.023 338.206,268.051 338.198,269.490 338.799 C 270.229 339.108,271.297 339.724,271.862 340.169 C 273.334 341.327,275.866 341.244,277.734 339.976 C 278.545 339.426,279.872 338.618,280.681 338.182 C 281.491 337.745,283.320 336.546,284.746 335.518 C 286.171 334.489,289.850 331.986,292.921 329.954 C 295.992 327.922,299.922 325.220,301.653 323.948 C 303.385 322.676,306.526 320.426,308.632 318.948 C 310.739 317.471,313.360 315.631,314.457 314.861 C 315.553 314.090,317.348 312.747,318.445 311.876 C 319.541 311.005,321.752 309.345,323.358 308.187 C 324.964 307.029,328.194 304.606,330.536 302.802 C 332.879 300.999,335.476 299.025,336.307 298.416 C 337.900 297.248,340.511 295.151,343.167 292.905 C 344.042 292.165,346.230 290.820,348.029 289.917 C 349.827 289.013,351.511 288.018,351.770 287.706 C 352.029 287.394,352.931 287.139,353.774 287.139 C 355.705 287.139,357.463 285.672,359.658 282.231 C 361.278 279.690,366.906 273.579,367.625 273.579 C 369.604 273.579,372.228 266.131,373.518 256.848 C 373.869 254.315,374.604 250.000,375.151 247.258 C 376.133 242.329,376.436 240.393,378.059 228.714 C 379.656 217.218,380.046 201.101,378.805 197.860 C 377.902 195.501,377.922 188.661,378.847 183.334 C 379.842 177.599,379.721 177.069,377.419 177.069 C 375.545 177.069,374.477 175.901,374.477 173.852 C 374.477 171.634,374.062 170.974,370.337 167.260 C 366.798 163.733,363.923 160.418,363.184 159.013 C 362.925 158.519,362.263 157.501,361.715 156.750 C 361.167 156.000,360.449 154.892,360.120 154.287 C 359.791 153.682,359.019 152.367,358.405 151.365 C 356.920 148.940,356.681 146.496,357.517 142.283 C 358.155 139.069,358.156 138.564,357.539 134.358 C 356.710 128.706,356.327 128.170,348.571 121.834 C 345.943 119.687,342.905 115.069,342.234 112.200 C 342.038 111.357,341.345 109.322,340.696 107.677 C 339.603 104.907,338.699 101.223,337.908 96.311 C 337.501 93.779,336.221 93.534,331.644 95.114 L 328.628 96.155 326.926 95.402 C 325.272 94.670,321.075 92.009,318.245 89.899 C 317.478 89.326,315.234 87.713,313.260 86.314 C 308.992 83.290,307.599 82.287,304.686 80.137 C 303.480 79.247,301.595 77.897,300.499 77.137 C 299.402 76.377,297.248 74.859,295.713 73.765 C 294.177 72.671,292.012 71.172,290.901 70.436 C 289.789 69.699,286.828 67.585,284.320 65.738 C 280.113 62.639,278.897 61.836,274.144 59.023 C 269.388 56.207,268.436 55.625,266.571 54.385 C 265.458 53.646,264.371 53.041,264.156 53.041 C 263.940 53.041,263.146 52.572,262.391 51.999 C 260.132 50.286,257.685 49.379,253.865 48.836 C 247.037 47.866,243.100 46.986,241.133 45.989 C 240.049 45.440,238.374 44.753,237.411 44.464 C 230.241 42.306,224.459 33.934,226.873 29.204 C 228.572 25.874,227.859 25.048,222.333 23.940 C 221.017 23.676,219.037 23.040,217.933 22.527 C 215.121 21.220,213.979 20.984,213.481 21.609 M218.215 23.489 C 219.822 24.125,221.944 24.774,222.931 24.932 C 226.289 25.466,227.004 26.775,225.324 29.312 C 223.172 32.561,225.924 38.427,231.357 42.174 C 232.316 42.836,233.446 43.761,233.869 44.230 C 234.291 44.699,235.637 45.374,236.860 45.729 C 238.082 46.084,239.442 46.608,239.880 46.894 C 240.319 47.179,242.562 47.861,244.865 48.407 C 247.168 48.954,249.838 49.682,250.798 50.025 C 251.766 50.371,253.821 50.648,255.414 50.648 C 258.055 50.648,258.441 50.760,260.248 52.044 C 261.327 52.812,262.409 53.440,262.651 53.440 C 262.893 53.440,263.878 54.023,264.841 54.736 C 266.833 56.211,270.234 58.250,272.582 59.377 C 273.460 59.798,274.757 60.685,275.466 61.348 C 276.175 62.011,277.162 62.677,277.660 62.829 C 278.157 62.980,279.462 63.768,280.558 64.581 C 281.655 65.394,283.719 66.892,285.145 67.912 C 286.570 68.931,287.933 69.931,288.173 70.134 C 288.413 70.337,289.173 70.795,289.862 71.151 C 290.550 71.507,291.719 72.379,292.458 73.088 C 293.198 73.797,294.950 75.077,296.353 75.934 C 299.019 77.561,301.015 78.948,304.299 81.456 C 305.376 82.278,306.428 82.951,306.636 82.951 C 306.844 82.951,307.971 83.813,309.140 84.866 C 310.310 85.919,312.522 87.622,314.058 88.652 C 315.593 89.681,317.298 90.856,317.846 91.263 C 321.065 93.651,328.530 98.106,329.314 98.106 C 329.553 98.106,330.257 97.686,330.877 97.172 C 333.779 94.770,336.590 95.015,336.590 97.671 C 336.590 98.540,336.790 99.755,337.034 100.373 C 337.278 100.990,337.982 103.200,338.599 105.284 C 341.375 114.664,343.977 119.986,346.751 121.959 C 347.523 122.509,348.156 123.091,348.156 123.252 C 348.156 123.414,349.039 124.113,350.119 124.806 C 352.349 126.237,355.179 129.151,355.720 130.574 C 356.672 133.079,356.989 139.545,356.320 142.824 C 355.429 147.196,355.954 151.019,357.711 152.941 C 358.112 153.380,358.773 154.367,359.180 155.135 C 360.628 157.868,363.718 162.152,366.083 164.706 C 367.403 166.132,368.486 167.482,368.489 167.706 C 368.492 167.930,369.115 168.448,369.873 168.856 C 371.835 169.912,373.280 172.157,373.280 174.145 C 373.280 176.144,374.370 177.638,376.292 178.272 L 377.695 178.735 377.382 183.386 C 376.947 189.848,377.010 195.413,377.565 199.402 C 379.141 210.737,379.112 216.606,377.425 227.676 C 377.104 229.782,376.588 233.480,376.279 235.892 C 375.969 238.305,375.333 242.074,374.866 244.267 C 374.398 246.461,373.769 250.050,373.469 252.243 C 372.517 259.195,372.056 261.765,371.430 263.609 C 371.095 264.596,370.666 266.264,370.477 267.315 C 370.113 269.336,368.897 271.080,366.673 272.773 C 364.741 274.242,359.729 279.835,358.204 282.221 C 356.724 284.538,355.439 285.543,353.958 285.543 C 351.897 285.543,344.903 289.812,340.077 294.015 C 338.376 295.497,336.794 296.710,336.561 296.710 C 336.146 296.710,334.340 298.070,331.460 300.552 C 330.663 301.240,329.451 302.137,328.768 302.546 C 328.084 302.955,326.290 304.220,324.780 305.357 C 323.269 306.494,320.882 308.288,319.475 309.345 C 318.067 310.402,316.362 311.784,315.686 312.416 C 315.010 313.049,313.918 313.807,313.260 314.102 C 312.602 314.397,311.444 315.271,310.687 316.043 C 309.930 316.816,309.168 317.448,308.993 317.448 C 308.819 317.448,307.802 318.076,306.733 318.843 C 305.664 319.611,304.660 320.239,304.502 320.239 C 304.343 320.239,303.124 321.225,301.794 322.429 C 300.463 323.633,298.551 325.034,297.544 325.543 C 295.230 326.711,282.594 335.096,280.959 336.547 C 277.670 339.467,274.273 340.313,272.345 338.691 C 270.572 337.199,266.727 337.103,264.832 338.503 C 263.471 339.508,262.947 339.390,262.402 337.959 C 261.436 335.416,255.616 335.166,252.856 337.548 C 252.519 337.839,251.560 338.182,250.725 338.309 C 249.573 338.486,248.752 339.026,247.315 340.557 C 245.360 342.639,243.507 343.255,243.020 341.984 C 242.681 341.102,238.918 338.921,237.975 339.061 C 237.452 339.138,237.028 339.619,236.813 340.379 C 235.343 345.572,234.619 347.194,233.101 348.686 C 229.680 352.048,228.866 352.536,226.646 352.556 C 225.809 352.564,223.689 352.836,221.934 353.162 C 209.869 355.399,206.756 355.794,203.190 355.542 C 198.994 355.246,193.207 354.265,192.076 353.660 C 191.197 353.189,180.761 351.346,178.977 351.346 C 178.352 351.346,177.174 351.052,176.358 350.693 C 174.736 349.979,172.043 349.686,160.319 348.945 C 154.141 348.555,151.955 348.259,149.684 347.507 C 148.112 346.986,146.399 346.560,145.879 346.560 C 144.410 346.560,140.272 345.390,139.593 344.782 C 139.257 344.482,137.772 343.753,136.291 343.162 C 134.811 342.572,133.599 341.956,133.599 341.793 C 133.599 341.630,132.880 341.173,132.002 340.777 C 129.586 339.687,129.317 339.178,130.390 337.727 C 133.258 333.847,130.510 330.165,126.549 332.581 C 122.420 335.098,120.724 334.677,115.720 329.893 C 113.493 327.764,110.654 325.125,109.410 324.028 C 108.166 322.931,105.338 320.312,103.125 318.208 C 100.913 316.104,97.561 312.963,95.677 311.229 C 89.718 305.743,88.759 304.833,87.691 303.649 C 87.117 303.013,84.608 300.608,82.114 298.305 C 78.169 294.662,76.811 293.342,75.055 291.446 C 74.844 291.218,74.156 290.532,73.527 289.922 C 72.898 289.311,71.127 287.403,69.591 285.682 C 66.642 282.376,64.638 280.315,63.005 278.907 C 60.548 276.789,55.035 269.853,55.035 268.879 C 55.035 268.195,54.416 266.777,51.407 260.560 C 50.330 258.335,49.336 255.912,49.198 255.176 C 49.061 254.441,48.636 253.300,48.254 252.642 C 47.873 251.984,47.186 250.185,46.727 248.644 C 45.584 244.801,43.436 242.871,40.302 242.871 C 37.685 242.871,37.415 239.264,40.000 238.848 C 42.805 238.396,43.272 235.223,41.551 228.315 C 40.955 225.923,40.583 222.929,40.436 219.342 C 40.306 216.179,39.966 213.218,39.612 212.164 C 38.878 209.981,39.858 205.505,41.839 201.995 C 43.133 199.703,43.868 196.446,43.868 193.010 C 43.868 191.769,44.204 189.779,44.613 188.588 C 45.509 185.983,46.165 180.437,46.471 172.881 C 46.743 166.167,47.285 161.544,48.272 157.527 C 48.676 155.882,49.118 152.203,49.254 149.352 C 49.485 144.525,50.360 139.980,51.059 139.980 C 51.513 139.980,51.850 138.940,52.671 134.995 C 53.083 133.021,53.783 130.695,54.227 129.826 C 54.671 128.957,55.035 128.014,55.035 127.730 C 55.035 127.253,56.271 124.506,57.328 122.632 C 57.576 122.193,57.874 121.375,57.990 120.814 C 58.107 120.252,58.649 119.176,59.195 118.421 C 59.742 117.666,60.667 116.152,61.252 115.055 C 61.836 113.958,63.205 111.922,64.294 110.531 C 65.383 109.139,66.596 107.281,66.990 106.401 C 67.859 104.460,68.758 103.288,72.400 99.349 C 73.945 97.678,75.861 95.489,76.658 94.485 C 77.455 93.480,79.326 91.506,80.815 90.098 C 84.345 86.759,85.715 85.390,86.976 83.940 C 87.917 82.858,89.760 81.159,96.112 75.516 C 99.717 72.313,103.782 68.481,105.066 67.074 C 105.730 66.348,107.620 65.021,109.268 64.125 C 110.915 63.229,112.727 62.069,113.293 61.547 C 113.859 61.024,115.424 60.019,116.771 59.312 C 122.615 56.242,128.412 52.969,128.631 52.615 C 128.761 52.404,129.618 51.853,130.536 51.390 C 131.453 50.926,133.657 49.595,135.433 48.430 C 137.209 47.266,140.784 45.305,143.377 44.073 C 145.970 42.840,148.555 41.508,149.121 41.112 C 149.687 40.716,151.406 39.988,152.941 39.494 C 154.477 39.000,156.361 38.177,157.129 37.664 C 157.896 37.151,159.422 36.525,160.518 36.272 C 161.615 36.020,163.410 35.452,164.506 35.011 C 167.238 33.914,170.570 33.116,172.483 33.101 C 173.360 33.095,174.832 32.826,175.754 32.505 C 179.128 31.330,182.311 31.039,194.816 30.762 C 202.963 30.582,207.866 30.319,208.375 30.034 C 209.824 29.224,213.759 25.155,213.759 24.467 C 213.759 22.367,214.801 22.138,218.215 23.489 M95.513 118.103 C 94.197 118.315,91.861 118.385,90.321 118.259 L 87.520 118.029 85.790 119.792 L 84.060 121.555 83.962 199.262 C 83.908 242.001,83.838 277.400,83.807 277.926 C 83.775 278.452,83.906 279.080,84.096 279.322 C 84.287 279.563,84.663 280.445,84.932 281.281 C 85.660 283.540,85.974 283.583,101.465 283.570 C 114.641 283.558,118.017 283.339,118.923 282.433 C 119.931 281.425,120.029 275.640,120.031 217.100 C 120.034 159.845,120.083 155.196,120.699 154.687 C 121.628 153.919,147.132 153.887,148.056 154.653 C 148.593 155.099,148.669 162.335,148.728 218.057 C 148.802 287.857,148.565 282.348,151.531 283.147 C 153.452 283.664,214.382 283.533,215.451 283.009 C 217.297 282.104,217.279 282.749,217.300 217.125 C 217.314 175.226,217.452 155.269,217.732 154.990 C 218.973 153.748,242.816 153.453,244.384 154.659 L 245.298 155.363 245.273 217.061 L 245.248 278.759 246.252 280.740 C 247.753 283.702,246.300 283.588,281.082 283.462 C 314.350 283.340,312.654 283.460,313.534 281.173 C 313.783 280.527,313.912 258.252,313.889 219.741 C 313.870 186.510,313.855 157.841,313.856 156.032 C 313.860 150.679,313.589 150.591,297.507 150.703 C 280.073 150.825,281.772 152.538,281.702 134.772 C 281.655 122.511,281.587 121.257,280.923 120.243 C 279.393 117.908,285.252 118.047,188.949 118.058 C 140.191 118.063,99.761 117.988,99.103 117.892 C 98.445 117.796,96.830 117.890,95.513 118.103 M279.650 120.749 L 280.558 121.657 280.582 135.505 C 280.606 150.006,280.740 151.233,282.349 151.744 C 282.811 151.890,289.253 152.063,296.665 152.128 C 310.742 152.251,311.371 152.328,312.354 154.047 C 312.877 154.963,313.357 275.273,312.852 279.004 C 312.730 279.905,312.272 281.026,311.833 281.497 L 311.036 282.353 280.233 282.353 C 245.906 282.353,248.059 282.534,247.262 279.574 C 246.978 278.520,246.851 258.352,246.868 216.833 C 246.895 152.419,246.935 153.867,245.116 153.379 C 243.996 153.079,218.597 153.084,217.475 153.385 C 216.087 153.757,216.122 152.120,216.130 216.123 C 216.139 280.180,216.139 280.193,214.899 281.524 C 214.105 282.376,152.956 282.883,151.705 282.048 C 150.416 281.187,150.392 280.095,150.323 217.367 C 150.256 156.551,150.231 154.618,149.504 153.891 C 148.304 152.691,120.844 152.735,119.641 153.938 C 118.850 154.729,118.843 155.268,118.843 216.890 C 118.843 281.162,118.845 281.100,117.237 281.960 C 116.684 282.256,95.959 282.547,87.847 282.372 C 85.606 282.324,85.728 286.970,85.708 201.300 C 85.687 109.691,85.556 121.980,86.569 120.693 L 87.395 119.643 183.068 119.742 L 278.742 119.840 279.650 120.749 " stroke="none" fill="#fbfbbe" fill-rule="evenodd"></path></g></svg>